<mxfile host="app.diagrams.net" agent="Mozilla/5.0 (Macintosh; Intel Mac OS X 10_15_7) AppleWebKit/537.36 (KHTML, like Gecko) Chrome/141.0.0.0 Safari/537.36" version="28.2.8">
  <diagram name="Page-1" id="9veFLteHyi27wxi8tO8Y">
    <mxGraphModel dx="1769" dy="1046" grid="1" gridSize="10" guides="1" tooltips="1" connect="1" arrows="1" fold="1" page="1" pageScale="1" pageWidth="827" pageHeight="1169" math="0" shadow="0">
      <root>
        <mxCell id="0" />
        <mxCell id="1" parent="0" />
        <mxCell id="4PLDXjTlCWo8jP6sN7qb-16" value="" style="group" parent="1" vertex="1" connectable="0">
          <mxGeometry x="250.16" y="147" width="470" height="310" as="geometry" />
        </mxCell>
        <mxCell id="aYlrH8Bj0ctLZRhH1mbD-8" value="Web Scraping" style="text;html=1;whiteSpace=wrap;strokeColor=none;fillColor=none;align=center;verticalAlign=middle;rounded=0;" vertex="1" parent="4PLDXjTlCWo8jP6sN7qb-16">
          <mxGeometry x="300" y="97" width="60" height="38" as="geometry" />
        </mxCell>
        <mxCell id="4PLDXjTlCWo8jP6sN7qb-39" value="" style="group" parent="4PLDXjTlCWo8jP6sN7qb-16" vertex="1" connectable="0">
          <mxGeometry width="242" height="310" as="geometry" />
        </mxCell>
        <mxCell id="4PLDXjTlCWo8jP6sN7qb-18" value="" style="image;sketch=0;aspect=fixed;html=1;points=[];align=center;fontSize=12;image=img/lib/mscae/Docker.svg;" parent="4PLDXjTlCWo8jP6sN7qb-39" vertex="1">
          <mxGeometry x="20" y="20" width="60.98" height="50" as="geometry" />
        </mxCell>
        <mxCell id="4PLDXjTlCWo8jP6sN7qb-17" value="" style="rounded=0;whiteSpace=wrap;html=1;fillColor=none;" parent="4PLDXjTlCWo8jP6sN7qb-39" vertex="1">
          <mxGeometry width="242" height="310" as="geometry" />
        </mxCell>
        <mxCell id="dl5GH7IVr9jkh33VYxoE-1" value="" style="group" parent="1" vertex="1" connectable="0">
          <mxGeometry x="400.15999999999997" y="564" width="269.86000000000007" height="170" as="geometry" />
        </mxCell>
        <mxCell id="dl5GH7IVr9jkh33VYxoE-2" value="" style="image;aspect=fixed;perimeter=ellipsePerimeter;html=1;align=center;shadow=0;dashed=0;spacingTop=3;image=img/lib/active_directory/internet_cloud.svg;" parent="dl5GH7IVr9jkh33VYxoE-1" vertex="1">
          <mxGeometry width="269.86" height="170" as="geometry" />
        </mxCell>
        <mxCell id="dl5GH7IVr9jkh33VYxoE-3" value="" style="image;aspect=fixed;html=1;points=[];align=center;fontSize=12;image=img/lib/azure2/databases/Oracle_Database.svg;" parent="dl5GH7IVr9jkh33VYxoE-1" vertex="1">
          <mxGeometry x="100.93" y="70" width="68" height="68" as="geometry" />
        </mxCell>
        <mxCell id="dl5GH7IVr9jkh33VYxoE-4" value="" style="shape=image;verticalLabelPosition=bottom;verticalAlign=top;imageAspect=0;aspect=fixed;image=data:image/svg+xml,PHN2ZyB4bWxucz0iaHR0cDovL3d3dy53My5vcmcvMjAwMC9zdmciIHZpZXdCb3g9IjAgMCA2MzguMDM0NjY3OTY4NzUgNzkuOTc2NTAxNDY0ODQzNzUiIHZlcnNpb249IjEuMCIgd2lkdGg9IjkyMy4wNzY4NzY3MzU3MDEiIGhlaWdodD0iNTMzLjMzNDAwOTk2NTIzMTQiPjxwYXRoIGZpbGw9IiNmODAwMDAiIGQ9Ik0yNjUuNTkxMyA1Mi4wMzJoNDAuNjUyTDI4NC43NDggMTcuNDQ5NWwtMzkuNDUxMyA2Mi41MjdoLTE3Ljk1NWw0Ny45ODYtNzUuMTA4M0MyNzcuNDE0IDEuODMzNCAyODAuODkxMSAwIDI4NC43NDggMGMzLjcyOTggMCA3LjIwNyAxLjc3MDIgOS4yMzAyIDQuNzQxN2w0OC4xNzU1IDc1LjIzNDdoLTE3Ljk1NWwtOC40NzE5LTEzLjk3MjJoLTQxLjE1OHptMTg2LjUwNjMgMTMuOTcyMlYuNzU4N0g0MzYuODYxdjcxLjYzMWMwIDEuOTYuNzU4OCAzLjg1NjYgMi4yMTI4IDUuMzEwNyAxLjQ1NCAxLjQ1NDEgMy40MTQgMi4yNzYgNS41NjM1IDIuMjc2aDY5LjQ4MTZsOC45Nzc1LTEzLjk3MjJ6bS0yNTIuMDY4LTExLjY5NjFjMTQuNzk0MyAwIDI2LjgwNjYtMTEuOTQ5IDI2LjgwNjYtMjYuNzQzMSAwLTE0Ljc5NC0xMi4wMTIzLTI2LjgwNjMtMjYuODA2NS0yNi44MDYzSDEzMy4zNzR2NzkuMjE3N2gxNS4yMzA2VjE0LjczMDhoNTAuNDEzNWM3LjA4MTEgMCAxMi43NzEgNS43NTMyIDEyLjc3MSAxMi44MzQyIDAgNy4wODA5LTUuNjg5OSAxMi44MzQyLTEyLjc3MSAxMi44MzQybC00Mi45NTMyLS4wNjMzIDQ1LjQ4MiAzOS42NDA0aDIyLjEyODFMMTkzLjA3NTQgNTQuMzA4ek0zOS42MTU3IDc5Ljk3NjRDMTcuNzQ2NSA3OS45NzY0IDAgNjIuMjc0IDAgNDAuMzk5MiAwIDE4LjUyNDIgMTcuNzQ2Ny43NTg3IDM5LjYxNTUuNzU4N2g0Ni4wNDQ2YzIxLjg3NSAwIDM5LjYwOSAxNy43NjU1IDM5LjYwOSAzOS42NDA1IDAgMjEuODc0OS0xNy43MzQgMzkuNTc3Mi0zOS42MDkgMzkuNTc3MnpNODQuNjM2IDY2LjAwNDJjMTQuMTY4NCAwIDI1LjY0MzMtMTEuNDQzMyAyNS42NDMzLTI1LjYwNSAwLTE0LjE2MTktMTEuNDc0OS0yNS42Njg0LTI1LjY0MzMtMjUuNjY4NEg0MC42MzMyYy0xNC4xNjE4IDAtMjUuNjQzMyAxMS41MDY1LTI1LjY0MzMgMjUuNjY4NCAwIDE0LjE2MTcgMTEuNDgxNSAyNS42MDUgMjUuNjQzMyAyNS42MDV6bTI4OS4zMTg2IDEzLjk3MjJjLTIxLjg3NSAwLTM5LjY0MDMtMTcuNzAyMy0zOS42NDAzLTM5LjU3NzIgMC0yMS44NzUgMTcuNzY1My0zOS42NDA1IDM5LjY0MDMtMzkuNjQwNWg1NC42ODc0bC04LjkxNDMgMTMuOTcyMWgtNDQuNzYxNWMtMTQuMTYxOSAwLTI1LjY2OCAxMS41MDY1LTI1LjY2OCAyNS42Njg0IDAgMTQuMTYxNyAxMS41MDYxIDI1LjYwNSAyNS42NjggMjUuNjA1aDU0Ljk0MDFsLTguOTc3NCAxMy45NzIyem0xODYuMzE2Ny0xMy45NzIyYy0xMS42OTYzIDAtMjEuNjIyMi03LjgzOTYtMjQuNjU3LTE4LjY1MDZoNjUuMTE5M2w4Ljk3NzUtMTMuOTcyMmgtNzQuMDk2OGMzLjAzNDgtMTAuNzQ3OCAxMi45NjA3LTE4LjY1MDYgMjQuNjU3LTE4LjY1MDZoNDQuNjk4M0w2MTQuMDEwMi43NTg3aC01NC43NTA2Yy0yMS44NzUgMC0zOS42NDAzIDE3Ljc2NTUtMzkuNjQwMyAzOS42NDA1IDAgMjEuODc0OSAxNy43NjUzIDM5LjU3NzIgMzkuNjQwMyAzOS41NzcyaDQ2Ljk3NDNsOC45Nzc0LTEzLjk3MjJoLTU0Ljk0bTYxLjg5NDgtNTYuODM2OWE2LjkzNDEgNi45MzQxIDAgMDE2Ljk1NDMtNi45NTQ1YzMuOTIgMCA3LjAxNzUgMy4wOTc5IDcuMDE3NSA2Ljk1NDUgMCAzLjkxOTctMy4wOTc1IDcuMDE3Ni03LjAxNzUgNy4wMTc2LTMuODU2OCAwLTYuOTU0My0zLjA5NzktNi45NTQzLTcuMDE3NnptNi45NTQzIDguOTc3NWM0LjkzMTEgMCA4LjkxNDMtMy45ODMgOC45MTQzLTguOTE0MyAwLTQuOTMxNC0zLjk4MzItOC45MTQ0LTguOTE0My04LjkxNDQtNC44Njg0IDAtOC44NTEgMy45ODMtOC44NTEgOC45MTQ0IDAgNC45MzEzIDMuOTgyNiA4LjkxNDMgOC44NTEgOC45MTQzem0tLjgyMi0xNC4yMjVjMS4zOTA4IDAgMS45Ni4wNjMyIDIuNTkyNC4zMTYgMS43Ny41NjkxIDEuOTU5NSAyLjE0OTYgMS45NTk1IDIuNzgxOSAwIC4xMjY0IDAgLjQ0MjUtLjEyNjQuODIxOC0uMDYzLjM3OTQtLjMxNTkgMS4xMzgtMS4yMDEgMS43MDctLjEyNjUuMDYzMy0uMTg5Ny4xMjY1LS40NDI1LjI1M2wyLjI3NiA0LjEwOTRoLTIuMjEyOGwtMi4wMjMyLTMuNzkzM2gtMS4zOTA3djMuNzkzM2gtMS45NlYzLjkxOTh6bS42OTU2IDQuNTUyYy42MzItLjA2MzIgMS4yNjQ0LS4wNjMyIDEuNjQzNi0uNjMyMy4xODk1LS4yNTI4LjI1MzItLjUwNTcuMjUzMi0uODg1IDAtLjUwNTgtLjMxNjQtLjk0ODQtLjc1ODgtMS4yMDEzLS40NDI4LS4xODk2LS44ODUyLS4xODk2LTEuODMzNi0uMTg5NmgtLjU2ODd2Mi45MDgyaDEuMjY0MyIvPjwvc3ZnPg==;" parent="dl5GH7IVr9jkh33VYxoE-1" vertex="1">
          <mxGeometry x="82.98000000000002" y="20" width="103.9" height="60" as="geometry" />
        </mxCell>
        <mxCell id="dl5GH7IVr9jkh33VYxoE-5" value="" style="group" parent="1" vertex="1" connectable="0">
          <mxGeometry x="10" y="557" width="269.8399999999999" height="170" as="geometry" />
        </mxCell>
        <mxCell id="dl5GH7IVr9jkh33VYxoE-6" value="" style="image;aspect=fixed;perimeter=ellipsePerimeter;html=1;align=center;shadow=0;dashed=0;spacingTop=3;image=img/lib/active_directory/internet_cloud.svg;" parent="dl5GH7IVr9jkh33VYxoE-5" vertex="1">
          <mxGeometry width="269.84" height="170" as="geometry" />
        </mxCell>
        <mxCell id="dl5GH7IVr9jkh33VYxoE-7" value="" style="image;aspect=fixed;html=1;points=[];align=center;fontSize=12;image=img/lib/azure2/databases/Azure_Database_PostgreSQL_Server_Group.svg;" parent="dl5GH7IVr9jkh33VYxoE-5" vertex="1">
          <mxGeometry x="117.92000000000007" y="60" width="60" height="68" as="geometry" />
        </mxCell>
        <mxCell id="dl5GH7IVr9jkh33VYxoE-8" value="" style="shape=image;verticalLabelPosition=bottom;verticalAlign=top;imageAspect=0;aspect=fixed;image=data:image/svg+xml,PHN2ZyB4bWxuczp4bGluaz0iaHR0cDovL3d3dy53My5vcmcvMTk5OS94bGluayIgeG1sbnM9Imh0dHA6Ly93d3cudzMub3JnLzIwMDAvc3ZnIiB4bWw6c3BhY2U9InByZXNlcnZlIiBzdHlsZT0iZW5hYmxlLWJhY2tncm91bmQ6bmV3IDAgMCAxNzQuNiA0MzsiIHZpZXdCb3g9IjAgMCAxNzQuNjAwMDA2MTAzNTE1NjIgNDMuMDk5OTk4NDc0MTIxMDk0IiB5PSIwcHgiIHg9IjBweCIgaWQ9IkxheWVyXzEiIHZlcnNpb249IjEuMSIgd2lkdGg9IjE3NC42MDAwMDYxMDM1MTU2MiIgaGVpZ2h0PSI0My4wOTk5OTg0NzQxMjEwOTQiPiYjeGE7IDxzdHlsZSB0eXBlPSJ0ZXh0L2NzcyI+JiN4YTsgIC5zdDB7ZmlsbDojMzAzMDMwO30mI3hhOwkuc3Qxe2ZpbGw6dXJsKCNTVkdJRF8xXyk7fSYjeGE7CS5zdDJ7ZmlsbDp1cmwoI1NWR0lEXzJfKTt9JiN4YTsJLnN0M3tmaWxsOnVybCgjU1ZHSURfM18pO30mI3hhOwkuc3Q0e2ZpbGw6dXJsKCNTVkdJRF80Xyk7fSYjeGE7CS5zdDV7ZmlsbDp1cmwoI1NWR0lEXzVfKTt9JiN4YTsJLnN0NntmaWxsOnVybCgjU1ZHSURfNl8pO30mI3hhOwkuc3Q3e2ZpbGw6dXJsKCNTVkdJRF83Xyk7fSYjeGE7CS5zdDh7ZmlsbDp1cmwoI1NWR0lEXzhfKTt9JiN4YTsJLnN0OXtmaWxsOnVybCgjU1ZHSURfOV8pO30mI3hhOyA8L3N0eWxlPiYjeGE7IDxtZXRhZGF0YT4mI3hhOyAgJiN4YTsgICAmI3hhOyAgICYjeGE7ICAgJiN4YTsgICAmI3hhOyAgJiN4YTsgPC9tZXRhZGF0YT4mI3hhOyA8Zz4mI3hhOyAgPHBhdGggZD0iTTc2LjIsMTEuOWMxLjksMCwzLjUsMC4yLDQuNywwLjdjMS4zLDAuNSwyLjMsMS4xLDMuMSwyYzAuOCwwLjksMS4zLDEuOSwxLjYsMy4xYzAuMywxLjIsMC41LDIuNSwwLjUsNHYxNC44JiMxMDsmIzk7JiM5O2MtMC45LDAuMi0yLjIsMC40LTQsMC43Yy0xLjgsMC4zLTMuOCwwLjQtNiwwLjRjLTEuNCwwLTIuOC0wLjEtNC0wLjRjLTEuMi0wLjMtMi4yLTAuNy0zLjEtMS40Yy0wLjktMC42LTEuNS0xLjQtMi0yLjQmIzEwOyYjOTsmIzk7Yy0wLjUtMS0wLjctMi4yLTAuNy0zLjdjMC0xLjQsMC4zLTIuNiwwLjgtMy42YzAuNi0xLDEuMy0xLjgsMi4yLTIuNGMwLjktMC42LDItMS4xLDMuMy0xLjNjMS4yLTAuMywyLjUtMC40LDMuOS0wLjQmIzEwOyYjOTsmIzk7YzAuNiwwLDEuMywwLDIsMC4xYzAuNywwLjEsMS40LDAuMiwyLjIsMC40di0wLjljMC0wLjYtMC4xLTEuMy0wLjItMS45Yy0wLjItMC42LTAuNC0xLjEtMC44LTEuNmMtMC40LTAuNS0wLjktMC44LTEuNi0xLjEmIzEwOyYjOTsmIzk7Yy0wLjYtMC4zLTEuNC0wLjQtMi40LTAuNGMtMS4zLDAtMi41LDAuMS0zLjYsMC4zYy0xLjEsMC4yLTIsMC40LTIuNywwLjZsLTAuNy00LjZjMC43LTAuMywxLjgtMC41LDMuMS0wLjgmIzEwOyYjOTsmIzk7QzczLjIsMTIuMSw3NC42LDExLjksNzYuMiwxMS45TDc2LjIsMTEuOXogTTc2LjcsMzMuMWMxLjgsMCwzLjEtMC4xLDQtMC4zdi02LjNjLTAuMy0wLjEtMC44LTAuMi0xLjQtMC4zYy0wLjYtMC4xLTEuMy0wLjEtMi0wLjEmIzEwOyYjOTsmIzk7Yy0wLjYsMC0xLjMsMC0xLjksMC4xYy0wLjYsMC4xLTEuMiwwLjMtMS43LDAuNWMtMC41LDAuMy0wLjksMC42LTEuMywxLjFjLTAuMywwLjUtMC41LDEtMC41LDEuN2MwLDEuNCwwLjQsMi4zLDEuMywyLjgmIzEwOyYjOTsmIzk7Qzc0LjEsMzIuOCw3NS4yLDMzLjEsNzYuNywzMy4xeiBNOTguNSw1LjRjMCwxLjEtMC4zLDEuOS0xLDIuNlM5Niw4LjgsOTUsOC44Yy0xLDAtMS44LTAuMy0yLjUtMC45Yy0wLjctMC42LTEtMS40LTEtMi42JiMxMDsmIzk7JiM5O3MwLjMtMS45LDEtMi42YzAuNy0wLjYsMS41LTAuOSwyLjUtMC45YzAuOSwwLDEuOCwwLjMsMi40LDAuOUM5OC4xLDMuNCw5OC41LDQuMyw5OC41LDUuNHogTTk3LjksMzcuMWgtNS43VjEyLjZoNS43VjM3LjF6JiMxMDsmIzk7JiM5OyBNMTExLjQsMzcuMWMtMS42LTMuMi0zLjItNi45LTQuOC0xMS4xYy0xLjYtNC4yLTMuMS04LjctNC41LTEzLjRoNi4xYzAuMywxLjQsMC44LDIuOSwxLjIsNC40YzAuNSwxLjYsMC45LDMuMiwxLjQsNC43JiMxMDsmIzk7JiM5O2MwLjUsMS42LDEuMSwzLjEsMS42LDQuNmMwLjYsMS41LDEuMSwyLjgsMS41LDRjMC41LTEuMiwxLTIuNSwxLjUtNGMwLjUtMS41LDEuMS0zLDEuNi00LjZjMC41LTEuNiwxLTMuMiwxLjUtNC43JiMxMDsmIzk7JiM5O2MwLjUtMS42LDAuOS0zLDEuMi00LjRoNS44Yy0xLjQsNC44LTIuOSw5LjMtNC41LDEzLjRjLTEuNiw0LjItMy4zLDcuOS00LjgsMTEuMUMxMTYuMywzNy4xLDExMS40LDM3LjEsMTExLjQsMzcuMXogTTEyNi45LDI0LjkmIzEwOyYjOTsmIzk7YzAtMi4xLDAuMy00LDEtNS43YzAuNi0xLjYsMS41LTMsMi42LTQuMWMxLjEtMS4xLDIuMy0xLjksMy43LTIuNGMxLjQtMC42LDIuOC0wLjgsNC4yLTAuOGMzLjQsMCw2LDEuMSw3LjksMy4xJiMxMDsmIzk7JiM5O2MxLjksMi4xLDIuOSw1LjIsMi45LDkuNGMwLDAuMywwLDAuNiwwLDEuMWMwLDAuNCwwLDAuNy0wLjEsMS4xaC0xNi4yYzAuMiwyLDAuOSwzLjUsMi4xLDQuNmMxLjIsMS4xLDMsMS42LDUuMywxLjYmIzEwOyYjOTsmIzk7YzEuNCwwLDIuNi0wLjEsMy44LTAuNGMxLjEtMC4zLDIuMS0wLjUsMi43LTAuOGwwLjgsNC42Yy0wLjMsMC4yLTAuNywwLjMtMS4zLDAuNXMtMS4xLDAuMy0xLjksMC41Yy0wLjcsMC4xLTEuNCwwLjMtMi4zLDAuNCYjMTA7JiM5OyYjOTtjLTAuOCwwLjEtMS42LDAuMS0yLjUsMC4xYy0yLjEsMC00LTAuMy01LjYtMWMtMS42LTAuNi0yLjktMS41LTMuOS0yLjdjLTEtMS4xLTEuOC0yLjUtMi4zLTRDMTI3LjEsMjguNSwxMjYuOSwyNi44LDEyNi45LDI0Ljl6JiMxMDsmIzk7JiM5OyBNMTQzLjMsMjIuNGMwLTAuOC0wLjEtMS41LTAuMy0yLjJjLTAuMi0wLjctMC41LTEuMy0xLTEuOGMtMC40LTAuNS0wLjktMC45LTEuNi0xLjJjLTAuNi0wLjMtMS4zLTAuNC0yLjItMC40cy0xLjYsMC4yLTIuMywwLjUmIzEwOyYjOTsmIzk7Yy0wLjYsMC4zLTEuMiwwLjgtMS42LDEuM2MtMC41LDAuNS0wLjgsMS4xLTEuMSwxLjhjLTAuMywwLjctMC40LDEuNC0wLjUsMi4xQzEzMi44LDIyLjQsMTQzLjMsMjIuNCwxNDMuMywyMi40eiBNMTU0LjEsMTMuMyYjMTA7JiM5OyYjOTtjMS4xLTAuMywyLjUtMC42LDQuMy0wLjljMS44LTAuMywzLjctMC40LDUuOC0wLjRjMiwwLDMuNywwLjMsNSwwLjhjMS40LDAuNiwyLjQsMS4zLDMuMiwyLjNzMS40LDIuMiwxLjcsMy42JiMxMDsmIzk7JiM5O2MwLjMsMS40LDAuNSwyLjksMC41LDQuNnYxMy44aC01LjdWMjQuMmMwLTEuMy0wLjEtMi40LTAuMy0zLjRjLTAuMi0wLjktMC41LTEuNy0wLjktMi4yYy0wLjQtMC42LTAuOS0xLTEuNi0xLjMmIzEwOyYjOTsmIzk7Yy0wLjYtMC4zLTEuNS0wLjQtMi40LTAuNGMtMC43LDAtMS40LDAtMi4yLDAuMWMtMC44LDAuMS0xLjQsMC4yLTEuNywwLjJ2MTkuOGgtNS43TDE1NC4xLDEzLjNMMTU0LjEsMTMuM3oiIGNsYXNzPSJzdDAiPiYjeGE7ICA8L3BhdGg+JiN4YTsgIDxnPiYjeGE7ICAgPGxpbmVhckdyYWRpZW50IGdyYWRpZW50VHJhbnNmb3JtPSJtYXRyaXgoMC4yMzUzIDAgMCAtMC4yMzUzIC04NS40NjEgLTExOS42NjE5KSIgeTI9Ii01NDAuNTM1NSIgeDI9IjUyOC4wMDA3IiB5MT0iLTY3Ni4wMDQxIiB4MT0iNDI3Ljc5MDYiIGdyYWRpZW50VW5pdHM9InVzZXJTcGFjZU9uVXNlIiBpZD0iU1ZHSURfMV8iPiYjeGE7ICAgIDxzdG9wIHN0eWxlPSJzdG9wLWNvbG9yOiNGRjc3MDAiIG9mZnNldD0iMCI+JiN4YTsgICAgPC9zdG9wPiYjeGE7ICAgIDxzdG9wIHN0eWxlPSJzdG9wLWNvbG9yOiNGRjM1NTQiIG9mZnNldD0iMC43NDIiPiYjeGE7ICAgIDwvc3RvcD4mI3hhOyAgIDwvbGluZWFyR3JhZGllbnQ+JiN4YTsgICA8cGF0aCBkPSJNNDAuNywyOS4xYzAuOSwwLDEuOCwwLjIsMi42LDAuNWMxLjMtMS41LDItMy4yLDItNC45YzAtMi44LTEuOS01LjUtNS4zLTcuNmMtMy43LTIuMi04LjctMy41LTEzLjktMy41JiMxMDsmIzk7JiM5OyYjOTtjLTUuMywwLTEwLjIsMS4yLTEzLjksMy41Yy0zLjUsMi4xLTUuMyw0LjgtNS4zLDcuNmMwLDEuNywwLjcsMy40LDIsNC45YzAuOS0wLjMsMS43LTAuNSwyLjYtMC41YzIuMSwwLDQsMC44LDUuNSwyLjMmIzEwOyYjOTsmIzk7JiM5O2MxLDEsMS43LDIuMywyLjEsMy42YzIuMiwwLjUsNC42LDAuOCw3LjEsMC44czQuOC0wLjMsNy4xLTAuOGMwLjMtMS40LDEtMi42LDIuMS0zLjZDMzYuNywzMCwzOC42LDI5LjEsNDAuNywyOS4xeiBNMjYuMSwyMi43JiMxMDsmIzk7JiM5OyYjOTtjLTIuNCwwLTQuMy0xLjktNC4zLTQuM2g4LjZDMzAuNCwyMC43LDI4LjUsMjIuNywyNi4xLDIyLjd6IiBjbGFzcz0ic3QxIj4mI3hhOyAgIDwvcGF0aD4mI3hhOyAgIDxsaW5lYXJHcmFkaWVudCBncmFkaWVudFRyYW5zZm9ybT0ibWF0cml4KDAuMjM1MyAwIDAgLTAuMjM1MyAtODUuNDYxIC0xMTkuNjYxOSkiIHkyPSItNDg5LjMwNjUiIHgyPSI0NTguNzQ3NCIgeTE9Ii02MjQuNzc1IiB4MT0iMzU4LjUzNzIiIGdyYWRpZW50VW5pdHM9InVzZXJTcGFjZU9uVXNlIiBpZD0iU1ZHSURfMl8iPiYjeGE7ICAgIDxzdG9wIHN0eWxlPSJzdG9wLWNvbG9yOiNGRjc3MDAiIG9mZnNldD0iMCI+JiN4YTsgICAgPC9zdG9wPiYjeGE7ICAgIDxzdG9wIHN0eWxlPSJzdG9wLWNvbG9yOiNGRjM1NTQiIG9mZnNldD0iMC43NDIiPiYjeGE7ICAgIDwvc3RvcD4mI3hhOyAgIDwvbGluZWFyR3JhZGllbnQ+JiN4YTsgICA8cGF0aCBkPSJNMTEuMSwxNWMwLjQtMC4zLDAuOS0wLjUsMS4zLTAuN2gwYy0xLjEtMC44LTIuNC0xLjItMy42LTEuMmMtMS45LDAtMy43LDAuOC00LjksMi40bC0wLjUsMC42bDMuNCwyLjYmIzEwOyYjOTsmIzk7JiM5O0M3LjgsMTcuNCw5LjMsMTYuMSwxMS4xLDE1eiIgY2xhc3M9InN0MiI+JiN4YTsgICA8L3BhdGg+JiN4YTsgICA8bGluZWFyR3JhZGllbnQgZ3JhZGllbnRUcmFuc2Zvcm09Im1hdHJpeCgwLjIzNTMgMCAwIC0wLjIzNTMgLTg1LjQ2MSAtMTE5LjY2MTkpIiB5Mj0iLTQ5OC4xODUzIiB4Mj0iNDcwLjc1MDEiIHkxPSItNjMzLjY1NTIiIHgxPSIzNzAuNTM5OSIgZ3JhZGllbnRVbml0cz0idXNlclNwYWNlT25Vc2UiIGlkPSJTVkdJRF8zXyI+JiN4YTsgICAgPHN0b3Agc3R5bGU9InN0b3AtY29sb3I6I0ZGNzcwMCIgb2Zmc2V0PSIwIj4mI3hhOyAgICA8L3N0b3A+JiN4YTsgICAgPHN0b3Agc3R5bGU9InN0b3AtY29sb3I6I0ZGMzU1NCIgb2Zmc2V0PSIwLjc0MiI+JiN4YTsgICAgPC9zdG9wPiYjeGE7ICAgPC9saW5lYXJHcmFkaWVudD4mI3hhOyAgIDxwYXRoIGQ9Ik02LjgsMzAuN2MtMS4xLTEuNS0xLjktMy4xLTIuMS00LjhjLTAuMS0wLjQtMC4xLTAuOC0wLjEtMS4yYzAtMiwwLjYtMy45LDEuOS01LjZINi4xJiMxMDsmIzk7JiM5OyYjOTtjLTMuNCwwLTYuMSwyLjctNi4xLDYuMXYwLjloNC41Yy0xLjIsMS0xLjksMi40LTIuMSwzLjljLTAuMiwxLjYsMC4yLDMuMiwxLjIsNC41TDQsMzQuOWMwLjQtMS4zLDEtMi41LDItMy41JiMxMDsmIzk7JiM5OyYjOTtDNi4yLDMxLjIsNi41LDMwLjksNi44LDMwLjd6IiBjbGFzcz0ic3QzIj4mI3hhOyAgIDwvcGF0aD4mI3hhOyAgIDxsaW5lYXJHcmFkaWVudCBncmFkaWVudFRyYW5zZm9ybT0ibWF0cml4KDAuMjM1MyAwIDAgLTAuMjM1MyAtODUuNDYxIC0xMTkuNjYxOSkiIHkyPSItNTYzLjI4ODIiIHgyPSI1NTguNzYiIHkxPSItNjk4Ljc1NjgiIHgxPSI0NTguNTQ5OCIgZ3JhZGllbnRVbml0cz0idXNlclNwYWNlT25Vc2UiIGlkPSJTVkdJRF80XyI+JiN4YTsgICAgPHN0b3Agc3R5bGU9InN0b3AtY29sb3I6I0ZGNzcwMCIgb2Zmc2V0PSIwIj4mI3hhOyAgICA8L3N0b3A+JiN4YTsgICAgPHN0b3Agc3R5bGU9InN0b3AtY29sb3I6I0ZGMzU1NCIgb2Zmc2V0PSIwLjc0MiI+JiN4YTsgICAgPC9zdG9wPiYjeGE7ICAgPC9saW5lYXJHcmFkaWVudD4mI3hhOyAgIDxwYXRoIGQ9Ik00NS40LDE4LjhsMy40LTIuNmwtMC41LTAuN2MtMS4yLTEuNi0zLTIuNC00LjktMi40Yy0xLjMsMC0yLjYsMC40LTMuNiwxLjJoMGMwLjQsMC4yLDAuOSwwLjUsMS4zLDAuNyYjMTA7JiM5OyYjOTsmIzk7QzQyLjksMTYuMSw0NC4zLDE3LjQsNDUuNCwxOC44eiIgY2xhc3M9InN0NCI+JiN4YTsgICA8L3BhdGg+JiN4YTsgICA8bGluZWFyR3JhZGllbnQgZ3JhZGllbnRUcmFuc2Zvcm09Im1hdHJpeCgwLjIzNTMgMCAwIC0wLjIzNTMgLTg1LjQ2MSAtMTE5LjY2MTkpIiB5Mj0iLTU4Ni40MDA2IiB4Mj0iNTkwLjAwNTIiIHkxPSItNzIxLjg3MDUiIHgxPSI0ODkuNzk1IiBncmFkaWVudFVuaXRzPSJ1c2VyU3BhY2VPblVzZSIgaWQ9IlNWR0lEXzVfIj4mI3hhOyAgICA8c3RvcCBzdHlsZT0ic3RvcC1jb2xvcjojRkY3NzAwIiBvZmZzZXQ9IjAiPiYjeGE7ICAgIDwvc3RvcD4mI3hhOyAgICA8c3RvcCBzdHlsZT0ic3RvcC1jb2xvcjojRkYzNTU0IiBvZmZzZXQ9IjAuNzQyIj4mI3hhOyAgICA8L3N0b3A+JiN4YTsgICA8L2xpbmVhckdyYWRpZW50PiYjeGE7ICAgPHBhdGggZD0iTTUyLjEsMjUuMmMwLTMuNC0yLjctNi4xLTYuMS02LjFoLTAuNGMxLjIsMS43LDEuOSwzLjYsMS45LDUuNmMwLDAuNCwwLDAuOC0wLjEsMS4yJiMxMDsmIzk7JiM5OyYjOTtjLTAuMiwxLjctMC45LDMuMy0yLjEsNC44YzAuMywwLjIsMC42LDAuNSwwLjksMC43YzEsMSwxLjcsMi4yLDIsMy41bDAuNC0wLjVjMS0xLjMsMS40LTIuOSwxLjItNC41Yy0wLjItMS41LTEtMi45LTIuMS0zLjloNC41JiMxMDsmIzk7JiM5OyYjOTtMNTIuMSwyNS4yTDUyLjEsMjUuMnoiIGNsYXNzPSJzdDUiPiYjeGE7ICAgPC9wYXRoPiYjeGE7ICAgPGc+JiN4YTsgICAgPGxpbmVhckdyYWRpZW50IGdyYWRpZW50VHJhbnNmb3JtPSJtYXRyaXgoMC4yMzUzIDAgMCAtMC4yMzUzIC04NS40NjEgLTExOS42NjE5KSIgeTI9Ii00OTcuNjI3NSIgeDI9IjQ2OS45OTY3IiB5MT0iLTYzMy4wOTc0IiB4MT0iMzY5Ljc4NjUiIGdyYWRpZW50VW5pdHM9InVzZXJTcGFjZU9uVXNlIiBpZD0iU1ZHSURfNl8iPiYjeGE7ICAgICA8c3RvcCBzdHlsZT0ic3RvcC1jb2xvcjojRkY3NzAwIiBvZmZzZXQ9IjAiPiYjeGE7ICAgICA8L3N0b3A+JiN4YTsgICAgIDxzdG9wIHN0eWxlPSJzdG9wLWNvbG9yOiNGRjM1NTQiIG9mZnNldD0iMC43NDIiPiYjeGE7ICAgICA8L3N0b3A+JiN4YTsgICAgPC9saW5lYXJHcmFkaWVudD4mI3hhOyAgICA8cGF0aCBkPSJNMTguNywxMi4yYzMuNCwwLDYuMS0yLjcsNi4xLTYuMWMwLTMuNC0yLjctNi4xLTYuMS02LjFzLTYuMSwyLjctNi4xLDYuMVMxNS40LDEyLjIsMTguNywxMi4yeiBNMTguNywyLjgmIzEwOyYjOTsmIzk7JiM5OyYjOTtDMTguOCwyLjgsMTguOCwyLjgsMTguNywyLjhjLTAuNCwwLjQtMC43LDEtMC43LDEuN2MwLDEuMywxLjEsMi40LDIuNCwyLjRjMC42LDAsMS4yLTAuMywxLjctMC43djBjMCwxLjktMS41LDMuNC0zLjQsMy40JiMxMDsmIzk7JiM5OyYjOTsmIzk7Yy0xLjksMC0zLjQtMS41LTMuNC0zLjRDMTUuNCw0LjIsMTYuOSwyLjgsMTguNywyLjh6IiBjbGFzcz0ic3Q2Ij4mI3hhOyAgICA8L3BhdGg+JiN4YTsgICA8L2c+JiN4YTsgICA8Zz4mI3hhOyAgICA8bGluZWFyR3JhZGllbnQgZ3JhZGllbnRUcmFuc2Zvcm09Im1hdHJpeCgwLjIzNTMgMCAwIC0wLjIzNTMgLTg1LjQ2MSAtMTE5LjY2MTkpIiB5Mj0iLTUyNy40Mjg5IiB4Mj0iNTEwLjI4NDMiIHkxPSItNjYyLjg5ODciIHgxPSI0MTAuMDc0IiBncmFkaWVudFVuaXRzPSJ1c2VyU3BhY2VPblVzZSIgaWQ9IlNWR0lEXzdfIj4mI3hhOyAgICAgPHN0b3Agc3R5bGU9InN0b3AtY29sb3I6I0ZGNzcwMCIgb2Zmc2V0PSIwIj4mI3hhOyAgICAgPC9zdG9wPiYjeGE7ICAgICA8c3RvcCBzdHlsZT0ic3RvcC1jb2xvcjojRkYzNTU0IiBvZmZzZXQ9IjAuNzQyIj4mI3hhOyAgICAgPC9zdG9wPiYjeGE7ICAgIDwvbGluZWFyR3JhZGllbnQ+JiN4YTsgICAgPHBhdGggZD0iTTMzLjQsMTIuMmMzLjQsMCw2LjEtMi43LDYuMS02LjFTMzYuNywwLDMzLjQsMGMtMy40LDAtNi4xLDIuNy02LjEsNi4xUzMwLDEyLjIsMzMuNCwxMi4yeiBNMzMuNCwyLjgmIzEwOyYjOTsmIzk7JiM5OyYjOTtjLTAuNCwwLjQtMC43LDEtMC43LDEuN2MwLDEuMywxLjEsMi40LDIuNCwyLjRjMC42LDAsMS4yLTAuMywxLjctMC43djBjMCwxLjktMS41LDMuNC0zLjQsMy40QzMxLjUsOS41LDMwLDgsMzAsNi4xJiMxMDsmIzk7JiM5OyYjOTsmIzk7QzMwLDQuMiwzMS41LDIuOCwzMy40LDIuOHoiIGNsYXNzPSJzdDciPiYjeGE7ICAgIDwvcGF0aD4mI3hhOyAgIDwvZz4mI3hhOyAgIDxnPiYjeGE7ICAgIDxsaW5lYXJHcmFkaWVudCBncmFkaWVudFRyYW5zZm9ybT0ibWF0cml4KDAuMjM1MyAwIDAgLTAuMjM1MyAtODUuNDYxIC0xMTkuNjYxOSkiIHkyPSItNTI4LjgwMTEiIHgyPSI1MTIuMTM4NiIgeTE9Ii02NjQuMjcxIiB4MT0iNDExLjkyODQiIGdyYWRpZW50VW5pdHM9InVzZXJTcGFjZU9uVXNlIiBpZD0iU1ZHSURfOF8iPiYjeGE7ICAgICA8c3RvcCBzdHlsZT0ic3RvcC1jb2xvcjojRkY3NzAwIiBvZmZzZXQ9IjAiPiYjeGE7ICAgICA8L3N0b3A+JiN4YTsgICAgIDxzdG9wIHN0eWxlPSJzdG9wLWNvbG9yOiNGRjM1NTQiIG9mZnNldD0iMC43NDIiPiYjeGE7ICAgICA8L3N0b3A+JiN4YTsgICAgPC9saW5lYXJHcmFkaWVudD4mI3hhOyAgICA8cGF0aCBkPSJNMTEuNCwzMC44Yy0zLjQsMC02LjEsMi43LTYuMSw2LjFjMCwzLjQsMi43LDYuMSw2LjEsNi4xYzAuNywwLDEuNC0wLjEsMi0wLjRsLTAuMi0wLjImIzEwOyYjOTsmIzk7JiM5OyYjOTtjLTEuOC0xLjgtMi40LTQtMS4zLTUuMXMzLjMtMC40LDUuMSwxLjNsMC4yLDAuMmMwLjItMC42LDAuNC0xLjMsMC40LTJDMTcuNSwzMy42LDE0LjgsMzAuOCwxMS40LDMwLjh6IiBjbGFzcz0ic3Q4Ij4mI3hhOyAgICA8L3BhdGg+JiN4YTsgICA8L2c+JiN4YTsgICA8Zz4mI3hhOyAgICA8bGluZWFyR3JhZGllbnQgZ3JhZGllbnRUcmFuc2Zvcm09Im1hdHJpeCgwLjIzNTMgMCAwIC0wLjIzNTMgLTg1LjQ2MSAtMTE5LjY2MTkpIiB5Mj0iLTU4OC41ODM2IiB4Mj0iNTkyLjk1NTUiIHkxPSItNzI0LjA1MzQiIHgxPSI0OTIuNzQ1MyIgZ3JhZGllbnRVbml0cz0idXNlclNwYWNlT25Vc2UiIGlkPSJTVkdJRF85XyI+JiN4YTsgICAgIDxzdG9wIHN0eWxlPSJzdG9wLWNvbG9yOiNGRjc3MDAiIG9mZnNldD0iMCI+JiN4YTsgICAgIDwvc3RvcD4mI3hhOyAgICAgPHN0b3Agc3R5bGU9InN0b3AtY29sb3I6I0ZGMzU1NCIgb2Zmc2V0PSIwLjc0MiI+JiN4YTsgICAgIDwvc3RvcD4mI3hhOyAgICA8L2xpbmVhckdyYWRpZW50PiYjeGE7ICAgIDxwYXRoIGQ9Ik00MC43LDMwLjhjLTMuNCwwLTYuMSwyLjctNi4xLDYuMWMwLDAuNywwLjEsMS40LDAuNCwybDAuMi0wLjJjMS44LTEuOCw0LTIuNCw1LjEtMS4zczAuNCwzLjMtMS4zLDUuMSYjMTA7JiM5OyYjOTsmIzk7JiM5O2wtMC4yLDAuMmMwLjYsMC4yLDEuMywwLjQsMiwwLjRjMy40LDAsNi4xLTIuNyw2LjEtNi4xQzQ2LjgsMzMuNiw0NCwzMC44LDQwLjcsMzAuOHoiIGNsYXNzPSJzdDkiPiYjeGE7ICAgIDwvcGF0aD4mI3hhOyAgIDwvZz4mI3hhOyAgPC9nPiYjeGE7IDwvZz4mI3hhOzwvc3ZnPg==;" parent="dl5GH7IVr9jkh33VYxoE-5" vertex="1">
          <mxGeometry x="112.96000000000004" y="30" width="81.4" height="20" as="geometry" />
        </mxCell>
        <mxCell id="dl5GH7IVr9jkh33VYxoE-9" value="Postgres" style="text;html=1;whiteSpace=wrap;strokeColor=none;fillColor=none;align=center;verticalAlign=middle;rounded=0;" parent="dl5GH7IVr9jkh33VYxoE-5" vertex="1">
          <mxGeometry x="96.5200000000001" y="124" width="92.67" height="30" as="geometry" />
        </mxCell>
        <mxCell id="dl5GH7IVr9jkh33VYxoE-11" style="edgeStyle=orthogonalEdgeStyle;rounded=0;orthogonalLoop=1;jettySize=auto;html=1;entryX=0.467;entryY=0;entryDx=0;entryDy=0;entryPerimeter=0;" parent="1" source="dl5GH7IVr9jkh33VYxoE-10" target="dl5GH7IVr9jkh33VYxoE-6" edge="1">
          <mxGeometry relative="1" as="geometry" />
        </mxCell>
        <mxCell id="dl5GH7IVr9jkh33VYxoE-13" style="edgeStyle=orthogonalEdgeStyle;rounded=0;orthogonalLoop=1;jettySize=auto;html=1;exitX=0;exitY=0.5;exitDx=0;exitDy=0;" parent="1" source="dl5GH7IVr9jkh33VYxoE-12" target="dl5GH7IVr9jkh33VYxoE-2" edge="1">
          <mxGeometry relative="1" as="geometry" />
        </mxCell>
        <mxCell id="4PLDXjTlCWo8jP6sN7qb-1" value="" style="shape=image;verticalLabelPosition=bottom;verticalAlign=top;imageAspect=0;aspect=fixed;image=data:image/svg+xml,PHN2ZyB4bWxucz0iaHR0cDovL3d3dy53My5vcmcvMjAwMC9zdmciIHZlcnNpb249IjEuMSIgY2xhc3M9Imljb24iIHZpZXdCb3g9IjAgMCAxMTIwLjc4NjAxMDc0MjE4NzUgMTAxOS44Njc5MTk5MjE4NzUiIGhlaWdodD0iNzIwLjc1NDcxMzcyNTcwNjciIHdpZHRoPSI3OTIuMDc0OTE5MjUyNDI5MyI+PHBhdGggZmlsbD0iIzQ3NjZBQyIgZD0iTTU2Ny45NDY1NDEgNDk4LjIzMDIxMm0tNDQ5LjIxMDcyOSAwYTQ0OS4yMTA3MjkgNDQ5LjIxMDcyOSAwIDEgMCA4OTguNDIxNDU5IDAgNDQ5LjIxMDcyOSA0NDkuMjEwNzI5IDAgMSAwLTg5OC40MjE0NTkgMFoiLz48cGF0aCBmaWxsPSIjM0Y1QTk4IiBkPSJNOTc0LjY2NzI5NCA2ODkuMDQzNTc2Yy03MS44MDA0NzEgMTUyLjYzNjIzNS0yMjcuMDAyNzI5IDI1OC4zOTczNjUtNDA2LjcyMDc1MyAyNTguMzk3MzY1LTI0Ny45Mjg0NzEgMC00NDkuMjEwNzI5LTIwMS4yODIyNTktNDQ5LjIxMDcyOS00NDkuMjEwNzI5YTQ0Ni45Njk5NzYgNDQ2Ljk2OTk3NiAwIDAgMSA3OS4zNjYwMjMtMjU0Ljg5MTY3MSA0NDcuMDY2MzUzIDQ0Ny4wNjYzNTMgMCAwIDAtNDIuNDc3OTI5IDE5MC44MTMzNjVjMCAyNDcuOTI4NDcxIDIwMS4yODIyNTkgNDQ5LjIxMDcyOSA0NDkuMjEwNzI5IDQ0OS4yMTA3MjkgMTUzLjI5ODgyNCAwIDI4OC43NTU5NTMtNzYuOTU2NjEyIDM2OS44MzI2NTktMTk0LjMxOTA1OXoiLz48cGF0aCBmaWxsPSIjMzI1MzlEIiBkPSJNOTc0LjY2NzI5NCA2ODkuMDQzNTc2Yy04MS4wNzY3MDYgMTE3LjM2MjQ0Ny0yMTYuNTMzODM1IDE5NC4zMTkwNTktMzY5LjgzMjY1OSAxOTQuMzE5MDU5LTI0Ny45Mjg0NzEgMC00NDkuMjEwNzI5LTIwMS4yODIyNTktNDQ5LjIxMDcyOS00NDkuMjEwNzI5YTQ0Ny4wNjYzNTMgNDQ3LjA2NjM1MyAwIDAgMSA0Mi40Nzc5MjktMTkwLjgxMzM2NSA0NTIuNTIzNjcxIDQ1Mi41MjM2NzEgMCAwIDEgMzYuMzcwMDcxLTQ1Ljk0NzQ4MmMtMS4yNjQ5NDEgNC44MTg4MjQtMi40NTc2IDkuNjYxNzQxLTMuNTY1OTMgMTQuNTQwOGE0NDcuODYxNDU5IDQ0Ny44NjE0NTkgMCAwIDAtMjYuNDQzMjk0IDE1Mi4xMDYxNjVjMCAyNDcuOTE2NDI0IDIwMS4yODIyNTkgNDQ5LjIxMDcyOSA0NDkuMjEwNzMgNDQ5LjIxMDcyOSAxMzAuMzczMjcxIDAgMjQ3Ljg1NjE4OC01NS42Njk0NTkgMzI5Ljk0NDg0Ny0xNDQuNTA0NDcxYTQ0Mi44NDk4ODIgNDQyLjg0OTg4MiAwIDAgMS04Ljk1MDk2NSAyMC4yOTkyOTR6Ii8+PHBhdGggZmlsbD0iIzNBNUFBMyIgZD0iTTk4My42MTgyNTkgNjY4Ljc0NDI4MmMtODIuMDg4NjU5IDg4LjgzNTAxMi0xOTkuNTcxNTc2IDE0NC41MDQ0NzEtMzI5Ljk0NDg0NyAxNDQuNTA0NDcxLTI0Ny45Mjg0NzEgMC00NDkuMjEwNzI5LTIwMS4yOTQzMDYtNDQ5LjIxMDczLTQ0OS4yMTA3MjkgMC01My4zODA1MTggOS4zMjQ0MjQtMTA0LjU5MjU2NSAyNi40NDMyOTQtMTUyLjEwNjE2NWE0NDkuODI1MTI5IDQ0OS44MjUxMjkgMCAwIDAtMTEuMTU1NTc2IDk5LjgyMTkyOWMwIDI0Ny45Mjg0NzEgMjAxLjI5NDMwNiA0NDkuMjEwNzI5IDQ0OS4yMTA3MjkgNDQ5LjIxMDczIDEzMi4yNjQ2NTkgMCAyNTEuMjUzNDU5LTU3LjI4Mzc2NSAzMzMuNDg2NjgzLTE0OC4zNzE1NzdhNDQ2LjQ3NjA0NyA0NDYuNDc2MDQ3IDAgMCAxLTE4LjgyOTU1MyA1Ni4xNTEzNDF6Ii8+PHBhdGggZmlsbD0iIzZDOENDNyIgZD0iTTI5OS4yOTcxMjkgODM1Ljc2NDcwNmMtNjYuNDI3NDgyLTQwLjE2NDg5NC05MS4wOTk4NTktNjAuMjU5Mzg4LTEyOC40Njk4MzUtMTI4LjQ5MzkzYTQzNi45NDY4MjQgNDM2Ljk0NjgyNCAwIDAgMS01My43NDE5MjktMjEwLjU4MjU4OGMwLTkwLjU2OTc4OCAyNy40NjcyOTQtMTc0Ljc3ODcyOSA3NC41MjMxMDYtMjQ0LjczNiAxNS4wMjI2ODItMjIuMzM1MjQ3IDUxLjgwMjM1My00NS45MTEzNDEgNzAuNTQ3NTc2LTY1LjA3ODIxMi0xNi4wNzA3NzYgMjEuODc3NDU5LTUwLjAwNzM0MSA0OC4wMzE2MjQtNjIuMTE0NjM1IDcyLjc2NDIzNi01MC4xNjM5NTMgMTAyLjQ4NDMyOS02NC45MjE2IDIyNi45MzA0NDctMzIuNjM1NDgzIDM1MS4xNTk3MTdhNTMwLjkzNzk3NiA1MzAuOTM3OTc2IDAgMCAwIDMxLjU2MzI5NSA4OC42MTgxNjVjMzEuNjIzNTI5IDY4LjcxNjQyNCA0Ni40ODk2IDkwLjQ2MTM2NSAxMDAuMzI3OTA1IDEzNi4zNDg2MTJ6TTYxNS45Mjk5NzYgNDUyLjM2NzA1OXMxNC4xNzkzODgtMTkuMTc4OTE4IDQ3LjA5MTk1My0xLjU5MDIxMmMwIDAgMTEuOTc0Nzc2LTAuOTk5OTA2IDIyLjU2NDE0Mi0xMy4yMzk3MTggMCAwIDIzLjc2ODg0NyAwLjQ2OTgzNSA0NS44ODcyNDcgMzcuNDE4MTY1IDAgMCAyOC4zNzA4MjQgMy41OTAwMjQtNi44Nzg4NzEtMzUuMDMyODQ3cy02My45NTc4MzUtMjQuNTAzNzE4LTYxLjgzNzU1My00MC43NDMxNTNjMi4xMjAyODItMTYuMjM5NDM1IDI2Ljg3Njk4OC0xMi4wMTA5MTggMzQuOTQ4NTE4LTMyLjM0NjM1MyA4LjA3MTUyOS0yMC4zMjMzODgtMTguMjg3NDM1LTQxLjc5MTI0Ny0yNy42OTYxODgtNTQuOTcwNzI5LTkuNDIwOC0xMy4xNzk0ODIgMC0yNS4wMzM3ODggMzAuMTE3NjQ3LTIxLjI2MzA1OSAzMC4xMTc2NDcgMy43NTg2ODIgMzcuODE1NzE4LTguNDkzMTc2IDI3LjY2MDA0Ny0yMy4yNjI4NzEtMTAuMTU1NjcxLTE0Ljc4MTc0MSAyMC41NjQzMjktMTQuNjI1MTI5IDM4LjY0Njk2NC00LjUyOTY5NCAxOC4wNzA1ODggMTAuMDgzMzg4IDc3LjQzODQ5NCAxMi4yMjc3NjUgODYuODQ3MjQ3LTAuNzU4OTY0IDkuNDIwOC0xMi45ODY3MjkgMzMuODg4Mzc2LTU4LjU0ODcwNiA1MC44Mzg1ODktMTUuMjUxNTc3IDE2LjkzODE2NSA0My4yOTcxMjkgNjIuOTA5NzQxIDI2LjQxOTIgNzIuNjc5OTA2IDE0OS45Mzc2OTQgOS43NTgxMTggMTIzLjUxODQ5NCAyMy45NjE2IDEzNi44NTQ1ODggNi4zMTI2NTggMTc4LjkyMjkxOC0xNy42NDg5NDEgNDIuMDU2MjgyLTQ2LjE3NjM3Ni0xOS4yNzUyOTQtNTkuNzA1MjIzLTMwLjc0NDA5NC0xMy41NDA4OTQtMTEuNDY4OC0xNy45NTAxMTggMi4wNjAwNDctMTcuMzU5ODEyIDI5LjQxODkxNyAwLjU5MDMwNiAyNy4zNDY4MjQtMy44MTg5MTggODQuNDEzNzQxLTE4LjUyODM3NiA2OC41MzU3MTgtMTQuNzA5NDU5LTE1Ljg5MDA3MS00My44NzUzODgtMTE5LjMyNjExOC02OS43NDA0MjQtOTYuNTgxMjcxcy0zNy45MjQxNDEgODYuMjgxMDM1LTczLjIyMjAyMyA3My42MzE2MjRjLTM1LjI5Nzg4Mi0xMi42NDk0MTItMTIuODA2MDI0LTQyLjY5NDc3Ni00Mi40NTM4MzYtNTMuMDQzMi0yOS42NDc4MTItMTAuMzYwNDcxLTU5Ljk4MjMwNi0xMC45ODY5MTgtNjMuMzE5MzQxLTM0LjM0NjE2NS0zLjMyNDk4OC0yMy4zNzEyOTQtMjQuOTYxNTA2LTYuNjg2MTE4LTIwLjU4ODQyMy0zNi41MTQ2MzUgNC4zNjEwMzUtMjkuODE2NDcxLTcuOTg3Mi0zOC4yMTMyNzEtMi4yNjQ4NDgtNDMuNjQ2NDk0eiIvPjxwYXRoIGZpbGw9IiM2QzhDQzciIGQ9Ik05MzIuNzc5NjcxIDY1NS4zODQwOTRzLTEuMTY4NTY1IDEyLjE0MzQzNSAxLjQ1NzY5NCAxMC45NTA3NzdjMi42MTQyMTItMS4xODA2MTIgMi44MDY5NjUtMS40ODE3ODggNC4zMzY5NDEtMC4xNDQ1NjUgMS41Mjk5NzYgMS4zMzcyMjQgMS41NDIwMjQtMy42MTQxMTggMy44NzkxNTMtMy41Nzc5NzcgMi4zMzcxMjkgMC4wMjQwOTQtMC4wODQzMjkgMi45ODc2NzEgMS44NDMyIDMuMDg0MDQ3IDEuOTI3NTI5IDAuMDk2Mzc2IDQuNjg2MzA2LTIwLjY3Mjc1MyA4LjU0MTM2NS0zMS4zOTQ2MzUgMCAwIDQuNjk4MzUzLTIuNzcwODI0IDAuNzIyODIzLTExLjA4MzI5NC0zLjk3NTUyOS04LjMxMjQ3MSA4Ljc5NDM1My0yMC44NTM0NTkgMi41Mjk4ODItMjMuMDIxOTI5LTYuMjY0NDcxLTIuMTY4NDcxLTMuMzczMTc2IDExLjMzNjI4Mi04LjY3Mzg4MiAxNi4xNTUxMDYtNS4zMDA3MDYgNC44MTg4MjQtMS4yMDQ3MDYgMTAuMTE5NTI5LTEuNTY2MTE4IDE0LjY5NzQxMXMwLjc3MTAxMiA1Ljg3ODk2NS02LjMwMDYxMSA2LjkxNTAxMmMtNy4wNzE2MjQgMS4wMzYwNDctOS40ODEwMzUgMTMuNTY0OTg4LTYuNzcwNDQ3IDE3LjQyMDA0N3pNMzc1LjY4NzUyOSAyODIuMDQ1NzQxcy0xNS4zMzU5MDYtMjQuMDgyMDcxIDE0LjU3Njk0Mi0zOC4yMDEyMjNjMjkuOTEyODQ3LTE0LjEwNzEwNiA4LjQzMjk0MS0yMy42MjQyODIgOS45NzQ5NjQtMjkuNDU1MDU5IDEuNTI5OTc2LTUuODE4NzI5IDIzLjYyNDI4Mi0xNS40OTI1MTggMzcuNTg2ODI0LTguNDMyOTQxIDEzLjk1MDQ5NCA3LjA1OTU3NiAxNy40ODAyODIgNi45MDI5NjUgMzAuNTI3MjQ3IDYuMTMxOTUzIDEzLjAzNDkxOC0wLjc1ODk2NSA0Mi41MTQwNzEgMjIuNDE5NTc2IDE2LjU3Njc1MyAyNC43MDg1MTctMjUuOTM3MzE4IDIuMzAwOTg4LTE4LjQxOTk1MyAyMS42MjQ0NzEtMzIuMjI1ODgzIDI3LjYxMTg1OS0xMy44MDU5MjkgNS45NzUzNDEtMjIuNTE1OTUzIDUuNjc0MTY1LTQxLjMzMzQ1OCA2LjIwNDIzNS0xOC44MDU0NTkgMC41NDIxMTgtNi42ODYxMTggOS4yODgyODItMTguMzQ3NjcxIDE1LjQyMDIzNi0xMS42NjE1NTMgNi4xNDQtMTIuMTE5MzQxIDEuNjg2NTg4LTE3LjMzNTcxOC0zLjk4NzU3N3pNNDEzLjc2ODI4MiAzODkuMjQwNDcxcy0zMS4xMTc1NTMtMTUuNzMzNDU5LTM1Ljk2MDQ3IDE1LjA5NDk2NGMtNC44NDI5MTggMzAuODI4NDI0LTQuNDY5NDU5IDU2LjQ3NjYxMiAxMy4zMjQwNDcgNTIuMTg3ODU5IDE3Ljc5MzUwNi00LjMwMDggMzIuNjQ3NTI5LTAuNDkzOTI5IDUwLjMyMDU2NS0yNi4zODMwNTkgMTcuNjczMDM1LTI1LjkwMTE3NiAyMi45NDk2NDctMzIuMDMzMTI5IDQ1Ljg5OTI5NC05LjU3NzQxMSAyMi45NDk2NDcgMjIuNDU1NzE4IDMyLjQxODYzNSA1MS42Njk4MzUgNTMuMzkyNTY0IDIyLjMxMTE1MiAyMC45NzM5MjktMjkuMzcwNzI5IDE2LjY4NTE3Ni02LjIyODMyOSAzNy4wNTY3NTMtMjQuODg5MjIzIDIwLjM3MTU3Ni0xOC42NDg4NDcgMzkuNzkxNDM1IDguOTM4OTE4IDcyLjAwNTI3MSAxMS4yMzk5MDYgMzIuMjEzODM1IDIuMzAwOTg4IDcuMzYwNzUzLTIuOTE1Mzg4IDAuNjE0NC0yNi42ODQyMzUgMCAwIDExLjgwNjExOC03LjI4ODQ3MSA1LjUxNzU1My0yNS4yMzg1ODktNi4yODg1NjUtMTcuOTUwMTE4IDExLjQyMDYxMi02LjI3NjUxOCAxMi4yMDM2Ny03LjI1MjMyOSAwLjc4MzA1OS0wLjk4Nzg1OSAzMC41MzkyOTQtMy40NTc1MDYgMTYuODg5OTc3LTIxLjY5Njc1My0xMy42NDkzMTgtMTguMjUxMjk0LTIyLjM4MzQzNS0zLjY5ODQ0Ny0zMy45ODQ3NTMtMzQuNDMwNDk0LTExLjYwMTMxOC0zMC43NDQwOTQgMTAuNTc3MzE4LTY2Ljk5MzY5NC0yOC42NzItNjMuNzA0ODQ3IDAgMC0zNS4xODk0NTkgMzQuNzY3ODEyLTY4LjgyNDg0NyAxOS4xNzg5MTctMzMuNjQ3NDM1LTE1LjU3Njg0Ny03MS40MTQ5NjUtNy42ODYwMjQtODUuNzk5MTUzIDE1LjcwOTM2NS0xNC4zODQxODggMjMuMzk1Mzg4LTExLjUwNDk0MSAxOC40MDc5MDYtMTMuOTk4NjgyIDQxLjgwMzI5NC0yLjQ5Mzc0MSAyMy4zOTUzODgtMjIuMzU5MzQxIDM2LjM3MDA3MS00Ni43NTQ2MzYgMzIuMzgyNDk0LTI0LjM4MzI0Ny0zLjk4NzU3NiA2LjAyMzUyOSAyOC40NTUxNTMgNi43NzA0NDcgMjkuOTQ4OTg5eiIvPjxwYXRoIGZpbGw9IiM2QzhDQzciIGQ9Ik0zNzUuMTU3NDU5IDQ4OC43ODUzMThzNDEuMzIxNDEyLTEwLjA3MTM0MSA1OC4zNTU5NTMtMzAuMjAxOTc3YzE3LjAzNDU0MS0yMC4xMzA2MzUgMjAuNzA4ODk0LTEzLjkzODQ0NyAyNi43ODA2MTItMzYuODE1ODEyIDAgMCAxNC40Njg1MTgtMTQuMjM5NjI0IDQwLjU4NjU0MSAzOC4wMjA1MTggMCAwIDI4Ljc2ODM3NiAzNi4xODkzNjUgNTAuMTAzNzE3LTEwLjU1MzIyMyAwIDAgNy45MDI4NzEtMTQuMTQzMjQ3IDI3LjA4MTc4OSAxOS4xNzg5MTcgMCAwIDEwLjc5NDE2NSAxMC4zMDAyMzUgMTkuNjYwOC0xMS4yNjQgMCAwIDEzLjY2MTM2NSA2Ljk1MTE1MyAxLjQzMzYgMzcuMzk0MDcxczkuMTc5ODU5IDI1LjUyNzcxOCAyMi4yOTkxMDUgMjguOTAwODk0YzEzLjEwNzIgMy4zNjExMjktMi45OTk3MTggMjUuMDk0MDI0IDE3Ljk3NDIxMiA0NC4xODg2MTIgMjAuOTczOTI5IDE5LjEwNjYzNSA0My4yNzMwMzUgNi4yNzY1MTggNTQuMDkxMjk0IDkuODkwNjM1IDEwLjgxODI1OSAzLjYyNjE2NS02NS4yMjI3NzYgNTcuMzY4MDk0LTYyLjk2OTk3NiA5Mi45NTUxMDYgMi4yNDA3NTMgMzUuNTc0OTY1IDE5LjEwNjYzNSA0Ni42MjIxMTgtMjYuOTYxMzE4IDYyLjcyOTAzNS00Ni4wNjc5NTMgMTYuMTA2OTE4LTEzLjg1NDExOCAyMC45NjE4ODItMTUuNDQ0MzI5IDI5LjkxMjg0Ny0xLjYwMjI1OSA4Ljk2MzAxMi0xNi40NTYyODIgMjkuOTQ4OTg4LTQwLjAyMDMzIDI4Ljg0MDY1OS0yMy41NjQwNDctMS4wOTYyODItMjIuNTc2MTg4IDE3LjMxMTYyNC0zNi40NDIzNTMtMTAuMTc5NzY1LTEzLjg2NjE2NS0yNy40OTEzODgtNDIuODc1NDgyLTQ0LjQ1MzY0Ny0xNi40MjAxNDEtODIuODExNDgyIDI2LjQ1NTM0MS0zOC4zNTc4MzUtMjIuNDY3NzY1LTM0LjMzNDExOC0xNS4xOTEzNDEtNjQuMjQ2OTY1IDcuMjg4NDcxLTI5LjkxMjg0Ny0yNi45MTMxMjktNC4wNzE5MDYtNDYuNTYxODgyLTE2LjM0Nzg1OS0xOS42NDg3NTMtMTIuMjYzOTA2LTcxLjgzNjYxMi03LjA1OTU3Ni02OC44NDg5NDEtNzEuNDc1MiAyLjk5OTcxOC02NC40MTU2MjQtMjYuMzU4OTY1LTE3LjY0ODk0MSAxMC40OTI5ODgtNTguMTE1MDExTTIxNy44OTUxNTMgMjMzLjk5MDAyNHM2Ni44MTI5ODgtODEuNDk4MzUzIDgzLjU5NDU0MS04My4zMDU0MTJjMCAwLTExLjY4NTY0NyAyMC4wODI0NDctMTEuNjg1NjQ3IDIzLjM3MTI5NCAwIDMuMzAwODk0LTExLjQyMDYxMiA3LjYyNTc4OC0yLjQ5Mzc0MSAxOS4yMTUwNTkgMCAwIDQuMTY4MjgyIDIuOTUxNTI5IDUuMjI4NDIzIDguNzM0MTE3IDEuMDYwMTQxIDUuNzk0NjM1IDMuMDIzODEyIDcuODU0NjgyIDE2Ljg2NTg4My00LjMyNDg5NCAwIDAgOC43MzQxMTggMC44NDMyOTQgOS4yMjgwNDcgMTAuNTUzMjI0IDAuNDkzOTI5IDkuNzIxOTc2IDIuMTU2NDI0IDcuMDcxNjI0IDQuODA2Nzc2IDkuNzIxOTc2IDIuNjYyNCAyLjY1MDM1My05LjYxMzU1MyAxNC4yODc4MTItMzYuNDE4MjU5IDE1Ljg2NTk3NyAwIDAtMTcuMDU4NjM1IDEuNzQ2ODI0LTI2Ljk2MTMxNyAxNy40NTYxODgtOS44OTA2MzUgMTUuNzA5MzY1LTkuMjY0MTg4IDE3LjIwMzItOC4yNDAxODggMTYuODg5OTc2IDEuMDI0LTAuMzEzMjI0IDQ1LjMyMTAzNS0zOC42NDY5NjUgNTguNTEyNTY0LTI3LjU2MzY3IDAgMCA0LjU1Mzc4OCAyLjY2MjQtOS45NzQ5NjQgMTEuOTM4NjM1IDAgMC01Ljk2MzI5NCA1LjMzNjg0NyA5Ljk3NDk2NCAxMy42NjEzNjUgMTUuOTUwMzA2IDguMzI0NTE4LTEwLjEzMTU3NiAxNy43NDUzMTgtOS43NTgxMTcgMjMuMjc0OTE3IDAuMzczNDU5IDUuNTI5NiAxMC45Mzg3MjkgMTIuNjI1MzE4IDIuMDcyMDk0IDE1Ljk1MDMwNi04Ljg1NDU4OCAzLjMzNzAzNS0zMi45NzI4LTEuNjI2MzUzLTM1Ljc5MTgxMiAwLjg3OTQzNi0yLjgxOTAxMiAyLjUxNzgzNS0xLjEwODMyOSAyLjg2NzItMy43NzA3MjkgNS4wMzU2Ny0yLjY2MjQgMi4xNTY0MjQtNy40NDUwODIgMi41MDU3ODgtNC41Nzc4ODMgMTEuMjg4MDk0IDIuODY3MiA4Ljc3MDI1OSA0LjM5NzE3NiAyMS44NjU0MTItMzAuMjM4MTE3IDEzLjAyMjg3MSAwIDAgOS42NjE3NDEtMTIuNDY4NzA2IDQuNTY1ODM1LTEzLjc5Mzg4Mi01LjEwNzk1My0xLjMzNzIyNC03LjkzOTAxMi0wLjU1NDE2NS0xNS41NTI3NTMgMTYuNzIxMzE3IDAgMC0yNC4wNzAwMjQgMzEuNDU0ODcxLTQyLjcxODg3MSA0MS43NTUxMDYgMCAwLTYuOTk5MzQxIDE0Ljc1NzY0Ny03LjQ0NTA4MiAyMi4xNjY1ODggMCAwLTQuOTYzMzg4IDMuNzEwNDk0LTUuNjUwMDcxLTUuMTU2MTQxLTAuNjk4NzI5LTguODU0NTg4LTQuMTQ0MTg4LTEyLjI1MTg1OS02Ljk3NTI0Ny04LjAzNTM4OC0yLjgzMTA1OSA0LjIwNDQyNC0zLjkwMzI0NyAxNy4zMTE2MjQtMS45NTE2MjMgMjIuOTYxNjk0IDEuOTUxNjI0IDUuNjYyMTE4IDguMjI4MTQxIDE0LjE5MTQzNS02Ljg5MDkxOCA0MS42ODI4MjQgMCAwLTEwLjAxMTEwNiAxOS43MzMwODIgNy42NjE5MyAzMy44NzYzMjlzNjAuMDE4NDQ3IDg1Ljc3NTA1OSA0Ni4xMTYxNDEgOTcuNzYxODgyYy0xMy45MDIzMDYgMTEuOTg2ODI0IDEyLjk4NjcyOSA2LjUyOTUwNiAxOS4zNDc1NzYgMTEuNzk0MDcxIDYuMzYwODQ3IDUuMjY0NTY1IDMuNDU3NTA2IDguNzIyMDcxIDEzLjk4NjYzNiAxMS4zMTIxODggMTAuNTE3MDgyIDIuNTkwMTE4IDcuNjAxNjk0IDI1LjUyNzcxOCAzNC4xMTcyNyAzOS4zNjk3ODggMjYuNTAzNTI5IDEzLjg0MjA3MS00LjY4NjMwNiAzNC4zOTQzNTMgMS44MzExNTMgNDcuMjcyNjU5czkuMDcxNDM1IDM3Ljk3MjMyOS03Ljk5OTI0NyA0Ni45ODM1M2MtMTcuMDU4NjM1IDkuMDExMi0wLjEyMDQ3MSAzMC42ODM4NTkgNy45OTkyNDcgMzguNzMxMjk0IDguMTE5NzE4IDguMDU5NDgyIDQ3LjIzNjUxOCA1Ny45MjIyNTkgNDEuMjg1MjcxIDU4LjI5NTcxNy01LjkzOTIgMC4zODU1MDYtODUuMDA0MDQ3LTMxLjY5NTgxMi0xMjUuMDAwMjgzLTEyOS44NTUyNDctMzkuOTk2MjM1LTk4LjE3MTQ4Mi01My4zODA1MTgtMTM0LjQwOTAzNS01NS41ODUxMjktMTc0LjgwMjgyMy0yLjIwNDYxMi00MC40MDU4MzUgMS4xMjAzNzYtMTUxLjQwNzQzNSAyOC40OTEyOTQtMTk0LjQ1MTU3NyAyNy4zNTg4NzEtNDMuMDU2MTg4IDEyLjEwNzI5NC00NC40NjU2OTQgNTkuOTk0MzUzLTEwNi4yNTUwNTh6TTY1Ni43OTM2IDc2OC4yNjUwMzVzLTE1LjYxMjk4OCAyMy4zMzUxNTMtMC4zNDkzNjUgMjQuOTYxNTA2YzE1LjI1MTU3NiAxLjYxNDMwNiAxNC4xNzkzODggMi44NjcyIDE3LjU4ODcwNi05LjE2NzgxMiAzLjQwOTMxOC0xMi4wMjI5NjUgNy4xODAwNDctMTcuMjI3Mjk0IDE2LjUxNjUxOC0yNC41ODgwNDdzNy4xODAwNDctMjAuNDY3OTUzIDYuMjg4NTY1LTI5LjI2MjMwNmMtMC45MDM1MjktOC44MDY0LTUuMTQ0MDk0LTE2Ljg3NzkyOS04LjIyODE0Mi02LjEwNzg1OC0zLjA4NDA0NyAxMC43NzAwNzEgMS4yMjg4IDE0LjU0MDgtMTAuMDgzMzg4IDE2LjY5NzIyMy0xMS4zMTIxODggMi4xNTY0MjQtMTAuOTUwNzc2LTEuMjUyODk0LTEzLjY0OTMxOCA2Ljk5OTM0MS0yLjY4NjQ5NCA4LjI2NDI4Mi0xMC4yMjc5NTMgOC4wODM1NzYtOC42MTM2NDcgMTMuNjQ5MzE4IDEuNjE0MzA2IDUuNTY1NzQxIDAuNTMwMDcxIDYuODE4NjM1IDAuNTMwMDcxIDYuODE4NjM1eiIvPjxwYXRoIGZpbGw9IiNERUU1RjYiIGQ9Ik01MjguMzg0IDI5LjA1NzUwNmMtMTkuNDY4MDQ3IDAtMzUuMjczNzg4IDIxOC43NjI1NDEtMzUuMjczNzg4IDQ4OC4yMDcwNTkgMCAyNjkuNDU2NTY1IDE1LjgwNTc0MSA0ODguMjA3MDU5IDM1LjI3Mzc4OCA0ODguMjA3MDU5LTQuODY3MDEyLTEyMi4wNDg3NTMtOC44MTg0NDctMjk4Ljc5MTE1My04LjgxODQ0Ny00ODguMjA3MDU5IDAtMTg5LjQxNTkwNiAzLjk1MTQzNS0zNjYuMTQ2MjU5IDguODE4NDQ3LTQ4OC4yMDcwNTl6Ii8+PHBhdGggZmlsbD0iI0RFRTVGNiIgZD0iTTE4LjY5NzAzNSA0ODcuMTcxMDEyYzAgMjguOTQ5MDgyIDIzNy43OTY4OTQgNTIuNDUyODk0IDUzMC42OTcwMzYgNTIuNDUyODk0czUzMC42OTcwMzUtMjMuNTAzODEyIDUzMC42OTcwMzUtNTIuNDUyODk0Yy0xMzIuNjc0MjU5IDcuMjQwMjgyLTMyNC44MDA3NTMgMTMuMTE5MjQ3LTUzMC42OTcwMzUgMTMuMTE5MjQ3cy0zOTguMDIyNzc2LTUuODc4OTY1LTUzMC42OTcwMzYtMTMuMTE5MjQ3eiIvPjxwYXRoIGZpbGw9IiNERUU1RjYiIGQ9Ik00ODQuNDI0MjgyIDEwLjI1MjA0N2MtMTM5LjI1MTk1MyAwLTI1Mi4zMTM2IDIyNC4wODczNDEtMjUyLjMxMzYgNTAwLjA5NzUwNiAwIDI3Ni4wMjIyMTIgMTEzLjA2MTY0NyA1MDAuMTA5NTUzIDI1Mi4zMTM2IDUwMC4xMDk1NTMtMTIwLjE1NzM2NS0yMi44NTMyNzEtMjE3LjcxNDQ0Ny0yMzkuMDczODgyLTIxNy43MTQ0NDctNTAwLjEwOTU1MyAwLTI2MS4wMjM2MjQgOTcuNTU3MDgyLTQ3Ny4yNDQyMzUgMjE3LjcxNDQ0Ny01MDAuMDk3NTA2eiIvPjxwYXRoIGZpbGw9IiNERUU1RjYiIGQ9Ik0zMC4zMTA0IDUyNy43Njk2YzAgMTM5LjI2NCAyMzUuOTY1NzQxIDI1Mi4zMjU2NDcgNTI2LjYxMzA4MiAyNTIuMzI1NjQ3czUyNi42MjUxMjktMTEzLjA2MTY0NyA1MjYuNjI1MTMtMjUyLjMyNTY0N2MtMjQuMDcwMDI0IDEyMC4xNTczNjUtMjUxLjc1OTQzNSAyMTcuNzE0NDQ3LTUyNi42MjUxMyAyMTcuNzE0NDQ3UzU0LjM4MDQyNCA2NDcuOTI2OTY1IDMwLjMxMDQgNTI3Ljc2OTZ6Ii8+PHBhdGggZmlsbD0iI0RFRTVGNiIgZD0iTTQ3Ny4zODg4IDBDMjEzLjkwNzU3NiAwIDAgMjIzLjEzNTYyNCAwIDQ5Ny45NjUxNzYgMCA3NzIuODA2Nzc2IDIxMy45MDc1NzYgOTk1LjkzMDM1MyA0NzcuMzg4OCA5OTUuOTMwMzUzYy0yNDEuMjMwMzA2LTE0LjAyMjc3Ni00MzcuMDY3Mjk0LTIzMi4zMjc1MjktNDM3LjA2NzI5NC00OTcuOTY1MTc3UzIzNi4xNTg0OTQgMTQuMDIyNzc2IDQ3Ny4zODg4IDB6TTY0My40MDkzMTggNS4xMmMyNjMuNDY5MTc2IDAgNDc3LjM3Njc1MyAyMjMuMTM1NjI0IDQ3Ny4zNzY3NTMgNDk3Ljk2NTE3NiAwIDI3NC44NDE2LTIxMy45MDc1NzYgNDk3Ljk2NTE3Ni00NzcuMzc2NzUzIDQ5Ny45NjUxNzcgMjQxLjIxODI1OS0xNC4wMTA3MjkgNDM3LjA1NTI0Ny0yMzIuMzE1NDgyIDQzNy4wNTUyNDctNDk3Ljk2NTE3NyAwLTI2NS42Mzc2NDctMTk1LjgzNjk4OC00ODMuOTQyNC00MzcuMDU1MjQ3LTQ5Ny45NjUxNzZ6Ii8+PHBhdGggZmlsbD0iI0RFRTVGNiIgZD0iTTU5NS40Mzc5MjkgMTkuNjYwOGMxMzkuMjY0IDAgMjUyLjMyNTY0NyAyMjQuMDg3MzQxIDI1Mi4zMjU2NDcgNTAwLjA5NzUwNiAwIDI3Ni4wMjIyMTItMTEzLjA2MTY0NyA1MDAuMTA5NTUzLTI1Mi4zMjU2NDcgNTAwLjEwOTU1M0M3MTUuNTk1Mjk0IDk5Ny4wMTQ1ODggODEzLjE1MjM3NiA3ODAuNzkzOTc2IDgxMy4xNTIzNzYgNTE5Ljc1ODMwNmMwLTI2MS4wMjM2MjQtOTcuNTU3MDgyLTQ3Ny4yNDQyMzUtMjE3LjcxNDQ0Ny01MDAuMDk3NTA2eiIvPjxwYXRoIGZpbGw9IiNERUU1RjYiIGQ9Ik0yOC4xNzgwNzEgNDQwLjQ2NDU2NWMwLTEzOS4yNjQgMjM4Ljc0ODYxMi0yNTIuMzI1NjQ3IDUzMi44MjkzNjQtMjUyLjMyNTY0NyAyOTQuMDgwNzUzIDAgNTMyLjgyOTM2NSAxMTMuMDYxNjQ3IDUzMi44MjkzNjUgMjUyLjMyNTY0Ny0yNC4zNTkxNTMtMTIwLjE2OTQxMi0yNTQuNzIzMDEyLTIxNy43MjY0OTQtNTMyLjgyOTM2NS0yMTcuNzI2NDk0UzUyLjUzNzIyNCAzMjAuMjk1MTUzIDI4LjE3ODA3MSA0NDAuNDY0NTY1eiIvPjwvc3ZnPg==" parent="1" vertex="1">
          <mxGeometry x="640.16" y="110" width="161.48" height="147" as="geometry" />
        </mxCell>
        <mxCell id="4PLDXjTlCWo8jP6sN7qb-24" value="" style="group" parent="1" vertex="1" connectable="0">
          <mxGeometry x="275.15999999999997" y="237" width="190" height="200" as="geometry" />
        </mxCell>
        <mxCell id="4PLDXjTlCWo8jP6sN7qb-28" value="" style="rounded=0;whiteSpace=wrap;html=1;fillColor=none;" parent="4PLDXjTlCWo8jP6sN7qb-24" vertex="1">
          <mxGeometry width="190" height="200" as="geometry" />
        </mxCell>
        <mxCell id="4PLDXjTlCWo8jP6sN7qb-25" value="" style="shape=image;verticalLabelPosition=bottom;verticalAlign=top;imageAspect=0;aspect=fixed;image=data:image/svg+xml,PHN2ZyB4bWxucz0iaHR0cDovL3d3dy53My5vcmcvMjAwMC9zdmciIHN0cm9rZS1taXRlcmxpbWl0PSIyIiBzdHJva2UtbGluZWpvaW49InJvdW5kIiBjbGlwLXJ1bGU9ImV2ZW5vZGQiIGZpbGwtcnVsZT0iZXZlbm9kZCIgdmlld0JveD0iNiA2LjAxMzAwMDAxMTQ0NDA5MiA0OTkuOTgyOTcxMTkxNDA2MjUgNDk5Ljk3Mzk5OTAyMzQzNzUiIHdpZHRoPSI0OTkuOTgyOTcxMTkxNDA2MjUiIGhlaWdodD0iNDk5Ljk3Mzk5OTAyMzQzNzUiPjxwYXRoIGZpbGwtcnVsZT0ibm9uemVybyIgZmlsbD0iIzAxN2NlZSIgZD0iTTE0LjA2OCA1MDQuMDA4TDI1My40ODYgMjU4LjYyYzEuNTI5LTEuNTAzIDEuNjk5LTMuODk4LjUxLTUuNjU2LTE0LjUyMy0yMC4zMjQtNDEuNDQ2LTIzLjg0OS01MS4zODMtMzcuNTA1LTI5LjQ3LTQwLjQ1Mi0zNi45NDUtNjMuMzUtNDkuNi02MS45MzFhMy43MTEgMy43MTEgMCAwMC0yLjI5MiAxLjIxNGwtODYuNTQ0IDg4LjY1QzE0LjQ5MyAyOTQuMzUgNy4zNiA0MDYuNjcgNiA1MDAuNzN2LjAxN2MwIDIuNTczIDIuMTIzIDQuNjg4IDQuNjcxIDQuNjg4IDEuMzYgMCAyLjU0OC0uNTEgMy4zOTctMS40Mjd6Ii8+PHBhdGggZmlsbC1ydWxlPSJub256ZXJvIiBmaWxsPSIjMDBhZDQ2IiBkPSJNNTAzLjk0NSA0OTcuOTUzbC0yNDUuMzYzLTIzOS40MWE0LjQ4IDQuNDggMCAwMC01LjY5LS41MzRjLTIwLjI5OSAxNC41NjUtMjMuODY2IDQxLjQyLTM3LjQ1NSA1MS4zNzQtNDAuNTExIDI5LjQ4Ny02My4zNTcgMzYuOTctNjEuOTk4IDQ5LjY0MS4xNy44ODQuNTk0IDEuNjkgMS4yNzMgMi4yOTNsODguNjY3IDg2LjQ3NmM1MC45NTggNDkuNzUyIDE2My4yMzYgNTYuOTAzIDI1Ny4yNTMgNTguMTk0IDIuNjMzIDAgNC43NTYtMi4xMTUgNC43NTYtNC42ODhhNC41OSA0LjU5IDAgMDAtMS40NDMtMy4zNDZ6Ii8+PHBhdGggZmlsbC1ydWxlPSJub256ZXJvIiBmaWxsPSIjMDRkNjU5IiBkPSJNMjQzLjM4IDQ0Ny44MTljLTI3Ljg1OC0yNy4xNzgtNDAuNzY3LTgwLjkzOSAxMi41NjktMTkxLjc5OC04Ni43MTMgMzguNzg4LTExNy4xMTggODkuNzcxLTEwMi4xNyAxMDQuMzdsODkuNiA4Ny40Mjh6Ii8+PHBhdGggZmlsbC1ydWxlPSJub256ZXJvIiBmaWxsPSIjMDBjN2Q0IiBkPSJNNDk3LjkxNSA4LjAyNkwyNTguNTgyIDI1My40MTRjLTEuNTI5IDEuNTAzLTEuNzg0IDMuODk4LS41OTUgNS42NTYgMTQuNjA4IDIwLjMyNCA0MS40NDYgMjMuODQ5IDUxLjM4MyAzNy41MDUgMjkuNDcgNDAuNDUyIDM3LjAzIDYzLjM1IDQ5LjY4NCA2MS45MzEuODUtLjEyNyAxLjY5OS0uNTUyIDIuMjkzLTEuMjE0bDg2LjQ1OS04OC42NWM0OS43NjktNTAuOTU4IDU2LjkwMy0xNjMuMjc4IDU4LjE3Ny0yNTcuMzM4di0uMDA5YzAtMi41NzMtMi4xMjMtNC42OTYtNC42NzEtNC42OTYtMS4yNzQgMC0yLjQ2My41MTgtMy4zOTcgMS40Mjd6Ii8+PHBhdGggZmlsbC1ydWxlPSJub256ZXJvIiBmaWxsPSIjMTFlMWVlIiBkPSJNNDQ3LjgwNiAyNjguNjQyYy0yNy4xNzggMjcuODU3LTgwLjkzOCA0MC43NjYtMTkxLjc3Mi0xMi42MiAzOC43MjggODYuNzkgODkuNzcxIDExNy4yMDMgMTA0LjM3OSAxMDIuMjQ2bDg3LjM5My04OS42MjZ6Ii8+PHBhdGggZmlsbC1ydWxlPSJub256ZXJvIiBmaWxsPSIjZTQzOTIxIiBkPSJNNy45NTMgMTQuMDgxbDI0NS4zNjMgMjM5LjM4NGE0LjQ4IDQuNDggMCAwMDUuNjkuNTM1YzIwLjI5OS0xNC41NjYgMjMuODY2LTQxLjQyIDM3LjU0LTUxLjM3NCA0MC40MjYtMjkuNDg4IDYzLjI3Mi0zNi45NyA2MS45MTQtNDkuNjQyLS4xNy0uODgzLS41OTUtMS42OTgtMS4yNzQtMi4zMDFsLTg4LjU4Mi04Ni40NzZDMjE3LjY0NiAxNC40NTUgMTA1LjI4NCA3LjMwNCAxMS4yNjYgNi4wMTNoLS4wODVjLTIuNTQ4IDAtNC42NzEgMi4xMTUtNC42NzEgNC42ODggMCAxLjI3NC41MSAyLjQ5NyAxLjQ0MyAzLjM4eiIvPjxwYXRoIGZpbGw9IiNmZjc1NTciIGQ9Ik0yNjguNjA0IDY0LjIxNWMyNy44NTcgMjcuMTc4IDQwLjc2NiA4MC45MzktMTIuNjU1IDE5MS44MDYgODYuNzk4LTM4Ljc4NyAxMTcuMjAzLTg5Ljc4IDEwMi4yNTYtMTA0LjM3bC04OS42MDEtODcuNDM2eiIvPjxwYXRoIGZpbGwtcnVsZT0ibm9uemVybyIgZmlsbD0iIzBjYjZmZiIgZD0iTTY0LjI2MiAyNDMuNGMyNy4xNzgtMjcuODU2IDgwLjg1My00MC43NjYgMTkxLjc3MiAxMi42MjEtMzguODEzLTg2Ljc5LTg5Ljc3MS0xMTcuMjAzLTEwNC4zNzktMTAyLjI0N2wtODcuMzkzIDg5LjYyN3oiLz48Y2lyY2xlIHRyYW5zZm9ybT0idHJhbnNsYXRlKDI0NS4zMzMgMjQ1LjI3OCkgc2NhbGUoOC40OTMpIiBmaWxsPSIjNGE0ODQ4IiByPSIxLjI2IiBjeT0iMS4yNiIgY3g9IjEuMjYiLz48L3N2Zz4=;" parent="4PLDXjTlCWo8jP6sN7qb-24" vertex="1">
          <mxGeometry x="65" y="83" width="60" height="60" as="geometry" />
        </mxCell>
        <mxCell id="4PLDXjTlCWo8jP6sN7qb-29" value="&lt;font style=&quot;font-size: 20px;&quot;&gt;Airflow&lt;/font&gt;" style="text;html=1;whiteSpace=wrap;strokeColor=none;fillColor=none;align=center;verticalAlign=middle;rounded=0;" parent="4PLDXjTlCWo8jP6sN7qb-24" vertex="1">
          <mxGeometry x="14.25" y="23" width="161.5" height="30" as="geometry" />
        </mxCell>
        <mxCell id="4PLDXjTlCWo8jP6sN7qb-32" style="edgeStyle=orthogonalEdgeStyle;rounded=0;orthogonalLoop=1;jettySize=auto;html=1;entryX=1;entryY=0.5;entryDx=0;entryDy=0;" parent="1" source="4PLDXjTlCWo8jP6sN7qb-1" target="4PLDXjTlCWo8jP6sN7qb-28" edge="1">
          <mxGeometry relative="1" as="geometry" />
        </mxCell>
        <mxCell id="4PLDXjTlCWo8jP6sN7qb-33" style="edgeStyle=orthogonalEdgeStyle;rounded=0;orthogonalLoop=1;jettySize=auto;html=1;exitX=1;exitY=0.75;exitDx=0;exitDy=0;" parent="1" source="4PLDXjTlCWo8jP6sN7qb-28" target="dl5GH7IVr9jkh33VYxoE-12" edge="1">
          <mxGeometry relative="1" as="geometry" />
        </mxCell>
        <mxCell id="4PLDXjTlCWo8jP6sN7qb-37" style="edgeStyle=orthogonalEdgeStyle;rounded=0;orthogonalLoop=1;jettySize=auto;html=1;exitX=0.5;exitY=1;exitDx=0;exitDy=0;" parent="1" source="4PLDXjTlCWo8jP6sN7qb-28" target="4PLDXjTlCWo8jP6sN7qb-38" edge="1">
          <mxGeometry relative="1" as="geometry">
            <mxPoint x="327.15999999999997" y="762" as="targetPoint" />
            <Array as="points">
              <mxPoint x="370.15999999999997" y="841" />
            </Array>
          </mxGeometry>
        </mxCell>
        <mxCell id="aYlrH8Bj0ctLZRhH1mbD-1" value="Data Ingestion and Validation" style="text;strokeColor=none;fillColor=none;html=1;fontSize=50;fontStyle=1;verticalAlign=middle;align=center;" vertex="1" parent="1">
          <mxGeometry x="72.45" y="28" width="669.55" height="40" as="geometry" />
        </mxCell>
        <mxCell id="aYlrH8Bj0ctLZRhH1mbD-3" value="" style="group" vertex="1" connectable="0" parent="1">
          <mxGeometry x="80" y="217" width="100.55000000000001" height="113" as="geometry" />
        </mxCell>
        <mxCell id="dl5GH7IVr9jkh33VYxoE-10" value="" style="shape=image;verticalLabelPosition=bottom;verticalAlign=top;imageAspect=0;aspect=fixed;image=data:image/svg+xml,PHN2ZyB4bWxuczp4bGluaz0iaHR0cDovL3d3dy53My5vcmcvMTk5OS94bGluayIgeG1sbnM9Imh0dHA6Ly93d3cudzMub3JnLzIwMDAvc3ZnIiB4bWw6c3BhY2U9InByZXNlcnZlIiBzdHlsZT0iZW5hYmxlLWJhY2tncm91bmQ6bmV3IDAgMCAxMTUuMjggMTIyLjg4IiB2aWV3Qm94PSIwLjAxMDAwNTIzNTY3MTk5NzA3IDAgMTE1LjI2OTk5NjY0MzA2NjQgMTIyLjg4OTk5MTc2MDI1MzkiIHk9IjBweCIgeD0iMHB4IiBpZD0iTGF5ZXJfMSIgdmVyc2lvbj0iMS4xIiB3aWR0aD0iMTE1LjI2OTk5NjY0MzA2NjQiIGhlaWdodD0iMTIyLjg4OTk5MTc2MDI1MzkiPjxzdHlsZSB0eXBlPSJ0ZXh0L2NzcyI+LnN0MHtmaWxsLXJ1bGU6ZXZlbm9kZDtjbGlwLXJ1bGU6ZXZlbm9kZDt9PC9zdHlsZT48Zz48cGF0aCBkPSJNMjUuMzgsNTdoNjQuODhWMzcuMzRINjkuNTljLTIuMTcsMC01LjE5LTEuMTctNi42Mi0yLjZjLTEuNDMtMS40My0yLjMtNC4wMS0yLjMtNi4xN1Y3LjY0bDAsMEg4LjE1IGMtMC4xOCwwLTAuMzIsMC4wOS0wLjQxLDAuMThDNy41OSw3LjkyLDcuNTUsOC4wNSw3LjU1LDguMjR2MTA2LjQ1YzAsMC4xNCwwLjA5LDAuMzIsMC4xOCwwLjQxYzAuMDksMC4xNCwwLjI4LDAuMTgsMC40MSwwLjE4IGMyMi43OCwwLDU4LjA5LDAsODEuNTEsMGMwLjE4LDAsMC4xNy0wLjA5LDAuMjctMC4xOGMwLjE0LTAuMDksMC4zMy0wLjI4LDAuMzMtMC40MXYtMTEuMTZIMjUuMzhjLTQuMTQsMC03LjU2LTMuNC03LjU2LTcuNTYgVjY0LjU1QzE3LjgyLDYwLjQsMjEuMjIsNTcsMjUuMzgsNTdMMjUuMzgsNTd6IE00NS44OCw4Mi4zNWw2LjI5LDEuOWMtMC40MiwxLjc2LTEuMDksMy4yNC0yLDQuNDJjLTAuOTEsMS4xOC0yLjAzLDIuMDgtMy4zOCwyLjY4IGMtMS4zNSwwLjYtMy4wNiwwLjktNS4xNCwwLjljLTIuNTMsMC00LjU5LTAuMzctNi4xOS0xLjFjLTEuNi0wLjc0LTIuOTgtMi4wMy00LjE0LTMuODdjLTEuMTYtMS44NC0xLjc1LTQuMjEtMS43NS03LjA5IGMwLTMuODQsMS4wMi02Ljc5LDMuMDYtOC44NWMyLjA1LTIuMDYsNC45NC0zLjA5LDguNjgtMy4wOWMyLjkyLDAsNS4yMywwLjU5LDYuOSwxLjc3YzEuNjcsMS4xOCwyLjkyLDMsMy43Myw1LjQ1bC02LjMyLDEuNCBjLTAuMjItMC43LTAuNDUtMS4yMi0wLjctMS41NGMtMC40MS0wLjU1LTAuOS0wLjk3LTEuNDgtMS4yNmMtMC41OC0wLjMtMS4yMy0wLjQ0LTEuOTUtMC40NGMtMS42MywwLTIuODgsMC42NS0zLjc1LDEuOTYgYy0wLjY1LDAuOTctMC45OCwyLjQ5LTAuOTgsNC41NmMwLDIuNTcsMC4zOSw0LjMzLDEuMTcsNS4yOWMwLjc4LDAuOTUsMS44OCwxLjQzLDMuMywxLjQzYzEuMzcsMCwyLjQxLTAuMzgsMy4xMS0xLjE2IEM0NS4wNiw4NC45Myw0NS41Niw4My44Miw0NS44OCw4Mi4zNUw0NS44OCw4Mi4zNXogTTU0LjQ3LDg0LjE3bDYuODEtMC40M2MwLjE1LDEuMSwwLjQ1LDEuOTUsMC45LDIuNTIgYzAuNzQsMC45NCwxLjc5LDEuNDEsMy4xNywxLjQxYzEuMDIsMCwxLjgxLTAuMjQsMi4zNi0wLjcyYzAuNTYtMC40OCwwLjgzLTEuMDQsMC44My0xLjY3YzAtMC42LTAuMjYtMS4xNC0wLjc4LTEuNjIgYy0wLjUyLTAuNDgtMS43NS0wLjkyLTMuNjYtMS4zNWMtMy4xNS0wLjctNS4zOC0xLjY0LTYuNzItMi44MmMtMS4zNS0xLjE3LTIuMDMtMi42Ni0yLjAzLTQuNDhjMC0xLjE5LDAuMzUtMi4zMSwxLjA0LTMuMzcgYzAuNjktMS4wNiwxLjczLTEuOSwzLjEyLTIuNWMxLjM5LTAuNjEsMy4yOS0wLjkxLDUuNzEtMC45MWMyLjk3LDAsNS4yMywwLjU1LDYuNzgsMS42NmMxLjU2LDEuMSwyLjQ4LDIuODYsMi43OCw1LjI3bC02Ljc1LDAuNCBjLTAuMTgtMS4wNS0wLjU2LTEuODItMS4xMy0yLjNjLTAuNTgtMC40OC0xLjM3LTAuNzItMi4zOC0wLjcyYy0wLjgzLDAtMS40NiwwLjE4LTEuODksMC41M2MtMC40MiwwLjM1LTAuNjMsMC43OC0wLjYzLDEuMjkgYzAsMC4zNywwLjE3LDAuNywwLjUxLDAuOTljMC4zMywwLjMxLDEuMTMsMC41OSwyLjM5LDAuODVjMy4xNCwwLjY4LDUuMzgsMS4zNiw2LjczLDIuMDVjMS4zNiwwLjY5LDIuMzUsMS41NSwyLjk2LDIuNTcgYzAuNjIsMS4wMiwwLjkyLDIuMTcsMC45MiwzLjQ0YzAsMS40OS0wLjQxLDIuODYtMS4yMyw0LjEyYy0wLjgzLDEuMjUtMS45NywyLjIxLTMuNDUsMi44NmMtMS40OCwwLjY1LTMuMzQsMC45Ny01LjU4LDAuOTcgYy0zLjk1LDAtNi42OC0wLjc2LTguMi0yLjI4QzU1LjUzLDg4LjQ0LDU0LjY3LDg2LjUxLDU0LjQ3LDg0LjE3TDU0LjQ3LDg0LjE3eiBNNzYuOTEsNjguNjNoNy41bDUuMjMsMTYuNzFsNS4xNi0xNi43MWg3LjI4IGwtOC42MiwyMy4yMmgtNy43N0w3Ni45MSw2OC42M0w3Ni45MSw2OC42M3ogTTk3Ljc5LDU3aDkuOTNjNC4xNiwwLDcuNTYsMy40MSw3LjU2LDcuNTZ2MzEuNDJjMCw0LjE1LTMuNDEsNy41Ni03LjU2LDcuNTZoLTkuOTMgdjEzLjU1YzAsMS42MS0wLjY1LDMuMDQtMS43LDQuMWMtMS4wNiwxLjA2LTIuNDksMS43LTQuMSwxLjdjLTI5LjQ0LDAtNTYuNTksMC04Ni4xOCwwYy0xLjYxLDAtMy4wNC0wLjY0LTQuMS0xLjcgYy0xLjA2LTEuMDYtMS43LTIuNDktMS43LTQuMVY1Ljg1YzAtMS42MSwwLjY1LTMuMDQsMS43LTQuMWMxLjA2LTEuMDYsMi41My0xLjcsNC4xLTEuN2g1OC43MkM2NC42NiwwLDY0LjgsMCw2NC45NCwwIGMwLjY0LDAsMS4yOSwwLjI4LDEuNzUsMC42OWgwLjA5YzAuMDksMC4wNSwwLjE0LDAuMDksMC4yMywwLjE4bDI5Ljk5LDMwLjM2YzAuNTEsMC41MSwwLjg4LDEuMiwwLjg4LDEuOTggYzAsMC4yMy0wLjA1LDAuNDEtMC4wOSwwLjY1VjU3TDk3Ljc5LDU3eiBNNjcuNTIsMjcuOTdWOC45NGwyMS40MywyMS43SDcwLjE5Yy0wLjc0LDAtMS4zOC0wLjMyLTEuODktMC43OCBDNjcuODQsMjkuNCw2Ny41MiwyOC43MSw2Ny41MiwyNy45N0w2Ny41MiwyNy45N3oiIGNsYXNzPSJzdDAiLz48L2c+PC9zdmc+;" parent="aYlrH8Bj0ctLZRhH1mbD-3" vertex="1">
          <mxGeometry x="24.999999999999986" y="43" width="65.45" height="70" as="geometry" />
        </mxCell>
        <mxCell id="aYlrH8Bj0ctLZRhH1mbD-2" value="National Lottery data Source" style="text;html=1;whiteSpace=wrap;strokeColor=none;fillColor=none;align=center;verticalAlign=middle;rounded=0;" vertex="1" parent="aYlrH8Bj0ctLZRhH1mbD-3">
          <mxGeometry width="100.55" height="45" as="geometry" />
        </mxCell>
        <mxCell id="aYlrH8Bj0ctLZRhH1mbD-5" value="" style="group" vertex="1" connectable="0" parent="1">
          <mxGeometry x="730.16" y="614" width="68.45000000000005" height="103" as="geometry" />
        </mxCell>
        <mxCell id="dl5GH7IVr9jkh33VYxoE-12" value="" style="shape=image;verticalLabelPosition=bottom;verticalAlign=top;imageAspect=0;aspect=fixed;image=data:image/svg+xml,PHN2ZyB4bWxuczp4bGluaz0iaHR0cDovL3d3dy53My5vcmcvMTk5OS94bGluayIgeG1sbnM9Imh0dHA6Ly93d3cudzMub3JnLzIwMDAvc3ZnIiB4bWw6c3BhY2U9InByZXNlcnZlIiBzdHlsZT0iZW5hYmxlLWJhY2tncm91bmQ6bmV3IDAgMCAxMTUuMjggMTIyLjg4IiB2aWV3Qm94PSIwLjAxMDAwNTIzNTY3MTk5NzA3IDAgMTE1LjI2OTk5NjY0MzA2NjQgMTIyLjg4OTk5MTc2MDI1MzkiIHk9IjBweCIgeD0iMHB4IiBpZD0iTGF5ZXJfMSIgdmVyc2lvbj0iMS4xIiB3aWR0aD0iMTE1LjI2OTk5NjY0MzA2NjQiIGhlaWdodD0iMTIyLjg4OTk5MTc2MDI1MzkiPjxzdHlsZSB0eXBlPSJ0ZXh0L2NzcyI+LnN0MHtmaWxsLXJ1bGU6ZXZlbm9kZDtjbGlwLXJ1bGU6ZXZlbm9kZDt9PC9zdHlsZT48Zz48cGF0aCBkPSJNMjUuMzgsNTdoNjQuODhWMzcuMzRINjkuNTljLTIuMTcsMC01LjE5LTEuMTctNi42Mi0yLjZjLTEuNDMtMS40My0yLjMtNC4wMS0yLjMtNi4xN1Y3LjY0bDAsMEg4LjE1IGMtMC4xOCwwLTAuMzIsMC4wOS0wLjQxLDAuMThDNy41OSw3LjkyLDcuNTUsOC4wNSw3LjU1LDguMjR2MTA2LjQ1YzAsMC4xNCwwLjA5LDAuMzIsMC4xOCwwLjQxYzAuMDksMC4xNCwwLjI4LDAuMTgsMC40MSwwLjE4IGMyMi43OCwwLDU4LjA5LDAsODEuNTEsMGMwLjE4LDAsMC4xNy0wLjA5LDAuMjctMC4xOGMwLjE0LTAuMDksMC4zMy0wLjI4LDAuMzMtMC40MXYtMTEuMTZIMjUuMzhjLTQuMTQsMC03LjU2LTMuNC03LjU2LTcuNTYgVjY0LjU1QzE3LjgyLDYwLjQsMjEuMjIsNTcsMjUuMzgsNTdMMjUuMzgsNTd6IE00NS44OCw4Mi4zNWw2LjI5LDEuOWMtMC40MiwxLjc2LTEuMDksMy4yNC0yLDQuNDJjLTAuOTEsMS4xOC0yLjAzLDIuMDgtMy4zOCwyLjY4IGMtMS4zNSwwLjYtMy4wNiwwLjktNS4xNCwwLjljLTIuNTMsMC00LjU5LTAuMzctNi4xOS0xLjFjLTEuNi0wLjc0LTIuOTgtMi4wMy00LjE0LTMuODdjLTEuMTYtMS44NC0xLjc1LTQuMjEtMS43NS03LjA5IGMwLTMuODQsMS4wMi02Ljc5LDMuMDYtOC44NWMyLjA1LTIuMDYsNC45NC0zLjA5LDguNjgtMy4wOWMyLjkyLDAsNS4yMywwLjU5LDYuOSwxLjc3YzEuNjcsMS4xOCwyLjkyLDMsMy43Myw1LjQ1bC02LjMyLDEuNCBjLTAuMjItMC43LTAuNDUtMS4yMi0wLjctMS41NGMtMC40MS0wLjU1LTAuOS0wLjk3LTEuNDgtMS4yNmMtMC41OC0wLjMtMS4yMy0wLjQ0LTEuOTUtMC40NGMtMS42MywwLTIuODgsMC42NS0zLjc1LDEuOTYgYy0wLjY1LDAuOTctMC45OCwyLjQ5LTAuOTgsNC41NmMwLDIuNTcsMC4zOSw0LjMzLDEuMTcsNS4yOWMwLjc4LDAuOTUsMS44OCwxLjQzLDMuMywxLjQzYzEuMzcsMCwyLjQxLTAuMzgsMy4xMS0xLjE2IEM0NS4wNiw4NC45Myw0NS41Niw4My44Miw0NS44OCw4Mi4zNUw0NS44OCw4Mi4zNXogTTU0LjQ3LDg0LjE3bDYuODEtMC40M2MwLjE1LDEuMSwwLjQ1LDEuOTUsMC45LDIuNTIgYzAuNzQsMC45NCwxLjc5LDEuNDEsMy4xNywxLjQxYzEuMDIsMCwxLjgxLTAuMjQsMi4zNi0wLjcyYzAuNTYtMC40OCwwLjgzLTEuMDQsMC44My0xLjY3YzAtMC42LTAuMjYtMS4xNC0wLjc4LTEuNjIgYy0wLjUyLTAuNDgtMS43NS0wLjkyLTMuNjYtMS4zNWMtMy4xNS0wLjctNS4zOC0xLjY0LTYuNzItMi44MmMtMS4zNS0xLjE3LTIuMDMtMi42Ni0yLjAzLTQuNDhjMC0xLjE5LDAuMzUtMi4zMSwxLjA0LTMuMzcgYzAuNjktMS4wNiwxLjczLTEuOSwzLjEyLTIuNWMxLjM5LTAuNjEsMy4yOS0wLjkxLDUuNzEtMC45MWMyLjk3LDAsNS4yMywwLjU1LDYuNzgsMS42NmMxLjU2LDEuMSwyLjQ4LDIuODYsMi43OCw1LjI3bC02Ljc1LDAuNCBjLTAuMTgtMS4wNS0wLjU2LTEuODItMS4xMy0yLjNjLTAuNTgtMC40OC0xLjM3LTAuNzItMi4zOC0wLjcyYy0wLjgzLDAtMS40NiwwLjE4LTEuODksMC41M2MtMC40MiwwLjM1LTAuNjMsMC43OC0wLjYzLDEuMjkgYzAsMC4zNywwLjE3LDAuNywwLjUxLDAuOTljMC4zMywwLjMxLDEuMTMsMC41OSwyLjM5LDAuODVjMy4xNCwwLjY4LDUuMzgsMS4zNiw2LjczLDIuMDVjMS4zNiwwLjY5LDIuMzUsMS41NSwyLjk2LDIuNTcgYzAuNjIsMS4wMiwwLjkyLDIuMTcsMC45MiwzLjQ0YzAsMS40OS0wLjQxLDIuODYtMS4yMyw0LjEyYy0wLjgzLDEuMjUtMS45NywyLjIxLTMuNDUsMi44NmMtMS40OCwwLjY1LTMuMzQsMC45Ny01LjU4LDAuOTcgYy0zLjk1LDAtNi42OC0wLjc2LTguMi0yLjI4QzU1LjUzLDg4LjQ0LDU0LjY3LDg2LjUxLDU0LjQ3LDg0LjE3TDU0LjQ3LDg0LjE3eiBNNzYuOTEsNjguNjNoNy41bDUuMjMsMTYuNzFsNS4xNi0xNi43MWg3LjI4IGwtOC42MiwyMy4yMmgtNy43N0w3Ni45MSw2OC42M0w3Ni45MSw2OC42M3ogTTk3Ljc5LDU3aDkuOTNjNC4xNiwwLDcuNTYsMy40MSw3LjU2LDcuNTZ2MzEuNDJjMCw0LjE1LTMuNDEsNy41Ni03LjU2LDcuNTZoLTkuOTMgdjEzLjU1YzAsMS42MS0wLjY1LDMuMDQtMS43LDQuMWMtMS4wNiwxLjA2LTIuNDksMS43LTQuMSwxLjdjLTI5LjQ0LDAtNTYuNTksMC04Ni4xOCwwYy0xLjYxLDAtMy4wNC0wLjY0LTQuMS0xLjcgYy0xLjA2LTEuMDYtMS43LTIuNDktMS43LTQuMVY1Ljg1YzAtMS42MSwwLjY1LTMuMDQsMS43LTQuMWMxLjA2LTEuMDYsMi41My0xLjcsNC4xLTEuN2g1OC43MkM2NC42NiwwLDY0LjgsMCw2NC45NCwwIGMwLjY0LDAsMS4yOSwwLjI4LDEuNzUsMC42OWgwLjA5YzAuMDksMC4wNSwwLjE0LDAuMDksMC4yMywwLjE4bDI5Ljk5LDMwLjM2YzAuNTEsMC41MSwwLjg4LDEuMiwwLjg4LDEuOTggYzAsMC4yMy0wLjA1LDAuNDEtMC4wOSwwLjY1VjU3TDk3Ljc5LDU3eiBNNjcuNTIsMjcuOTdWOC45NGwyMS40MywyMS43SDcwLjE5Yy0wLjc0LDAtMS4zOC0wLjMyLTEuODktMC43OCBDNjcuODQsMjkuNCw2Ny41MiwyOC43MSw2Ny41MiwyNy45N0w2Ny41MiwyNy45N3oiIGNsYXNzPSJzdDAiLz48L2c+PC9zdmc+;" parent="aYlrH8Bj0ctLZRhH1mbD-5" vertex="1">
          <mxGeometry x="3" width="65.45" height="70" as="geometry" />
        </mxCell>
        <mxCell id="aYlrH8Bj0ctLZRhH1mbD-4" value="Webscraped data" style="text;html=1;whiteSpace=wrap;strokeColor=none;fillColor=none;align=center;verticalAlign=middle;rounded=0;" vertex="1" parent="aYlrH8Bj0ctLZRhH1mbD-5">
          <mxGeometry y="73" width="60" height="30" as="geometry" />
        </mxCell>
        <mxCell id="aYlrH8Bj0ctLZRhH1mbD-7" value="" style="group" vertex="1" connectable="0" parent="1">
          <mxGeometry x="224.16" y="792" width="119" height="131" as="geometry" />
        </mxCell>
        <mxCell id="4PLDXjTlCWo8jP6sN7qb-38" value="" style="sketch=0;pointerEvents=1;shadow=0;dashed=0;html=1;strokeColor=none;fillColor=#434445;aspect=fixed;labelPosition=center;verticalLabelPosition=bottom;verticalAlign=top;align=center;outlineConnect=0;shape=mxgraph.vvd.log_files;" parent="aYlrH8Bj0ctLZRhH1mbD-7" vertex="1">
          <mxGeometry x="18" width="78.4" height="98" as="geometry" />
        </mxCell>
        <mxCell id="aYlrH8Bj0ctLZRhH1mbD-6" value="Data Validation Logs" style="text;html=1;whiteSpace=wrap;strokeColor=none;fillColor=none;align=center;verticalAlign=middle;rounded=0;" vertex="1" parent="aYlrH8Bj0ctLZRhH1mbD-7">
          <mxGeometry y="101" width="119" height="30" as="geometry" />
        </mxCell>
        <mxCell id="4PLDXjTlCWo8jP6sN7qb-34" style="edgeStyle=orthogonalEdgeStyle;rounded=0;orthogonalLoop=1;jettySize=auto;html=1;entryX=0.75;entryY=1;entryDx=0;entryDy=0;" parent="1" source="dl5GH7IVr9jkh33VYxoE-2" target="4PLDXjTlCWo8jP6sN7qb-28" edge="1">
          <mxGeometry relative="1" as="geometry" />
        </mxCell>
        <mxCell id="aYlrH8Bj0ctLZRhH1mbD-11" style="edgeStyle=orthogonalEdgeStyle;rounded=0;orthogonalLoop=1;jettySize=auto;html=1;entryX=0.25;entryY=1;entryDx=0;entryDy=0;" edge="1" parent="1" target="4PLDXjTlCWo8jP6sN7qb-28">
          <mxGeometry relative="1" as="geometry">
            <mxPoint x="190.16" y="427" as="targetPoint" />
            <mxPoint x="270" y="642" as="sourcePoint" />
          </mxGeometry>
        </mxCell>
        <mxCell id="aYlrH8Bj0ctLZRhH1mbD-12" value="Data to be validated" style="text;html=1;whiteSpace=wrap;strokeColor=none;fillColor=none;align=center;verticalAlign=middle;rounded=0;" vertex="1" parent="1">
          <mxGeometry x="540.16" y="507" width="60" height="30" as="geometry" />
        </mxCell>
        <mxCell id="aYlrH8Bj0ctLZRhH1mbD-13" value="Validation data set" style="text;html=1;whiteSpace=wrap;strokeColor=none;fillColor=none;align=center;verticalAlign=middle;rounded=0;" vertex="1" parent="1">
          <mxGeometry x="260.15999999999997" y="507" width="60" height="30" as="geometry" />
        </mxCell>
        <mxCell id="aYlrH8Bj0ctLZRhH1mbD-14" value="Scraped data to csv" style="text;html=1;whiteSpace=wrap;strokeColor=none;fillColor=none;align=center;verticalAlign=middle;rounded=0;" vertex="1" parent="1">
          <mxGeometry x="700.16" y="469" width="70" height="38" as="geometry" />
        </mxCell>
      </root>
    </mxGraphModel>
  </diagram>
</mxfile>
